<svg width="19" height="18" viewBox="0 0 19 18" fill="none" xmlns="http://www.w3.org/2000/svg">
<path d="M5 7.875C5.29837 7.875 5.58452 7.99353 5.7955 8.2045C6.00647 8.41548 6.125 8.70163 6.125 9C6.125 9.29837 6.00647 9.58452 5.7955 9.7955C5.58452 10.0065 5.29837 10.125 5 10.125C4.70163 10.125 4.41548 10.0065 4.2045 9.7955C3.99353 9.58452 3.875 9.29837 3.875 9C3.875 8.70163 3.99353 8.41548 4.2045 8.2045C4.41548 7.99353 4.70163 7.875 5 7.875ZM9.5 7.875C9.79837 7.875 10.0845 7.99353 10.2955 8.2045C10.5065 8.41548 10.625 8.70163 10.625 9C10.625 9.29837 10.5065 9.58452 10.2955 9.7955C10.0845 10.0065 9.79837 10.125 9.5 10.125C9.20163 10.125 8.91548 10.0065 8.7045 9.7955C8.49353 9.58452 8.375 9.29837 8.375 9C8.375 8.70163 8.49353 8.41548 8.7045 8.2045C8.91548 7.99353 9.20163 7.875 9.5 7.875ZM14 7.875C14.2984 7.875 14.5845 7.99353 14.7955 8.2045C15.0065 8.41548 15.125 8.70163 15.125 9C15.125 9.29837 15.0065 9.58452 14.7955 9.7955C14.5845 10.0065 14.2984 10.125 14 10.125C13.7016 10.125 13.4155 10.0065 13.2045 9.7955C12.9935 9.58452 12.875 9.29837 12.875 9C12.875 8.70163 12.9935 8.41548 13.2045 8.2045C13.4155 7.99353 13.7016 7.875 14 7.875Z" fill="#A0A3BD"/>
</svg>
