<svg width="14" height="14" viewBox="0 0 14 14" fill="none" xmlns="http://www.w3.org/2000/svg">
<rect width="14" height="14" rx="2" fill="#F6B205"/>
<path d="M5.04293 7.11512C4.92565 7.00964 4.77282 6.95241 4.6151 6.95491C4.45738 6.95741 4.30644 7.01945 4.19256 7.12859C4.07868 7.23773 4.01027 7.3859 4.00107 7.54336C3.99186 7.70083 4.04254 7.85596 4.14293 7.97762L5.53043 9.43387C5.58852 9.49481 5.65833 9.54338 5.73565 9.57668C5.81298 9.60997 5.89624 9.6273 5.98043 9.62762C6.06417 9.62811 6.14716 9.61176 6.22446 9.57955C6.30177 9.54734 6.37181 9.49993 6.43043 9.44012L10.6679 5.06512C10.7254 5.00602 10.7706 4.93619 10.8011 4.85961C10.8316 4.78303 10.8466 4.70119 10.8455 4.61878C10.8443 4.53637 10.8269 4.45499 10.7943 4.3793C10.7617 4.3036 10.7145 4.23507 10.6554 4.17762C10.5963 4.12017 10.5265 4.07492 10.4499 4.04445C10.3733 4.01398 10.2915 3.9989 10.2091 4.00006C10.1267 4.00122 10.0453 4.0186 9.96961 4.05121C9.89391 4.08382 9.82538 4.13102 9.76793 4.19012L5.98668 8.10262L5.04293 7.11512Z" fill="white"/>
</svg>
