<svg width="20" height="20" viewBox="0 0 20 20" fill="none" xmlns="http://www.w3.org/2000/svg">
<path fill-rule="evenodd" clip-rule="evenodd" d="M6.00657 4.82733C5.68114 4.50189 5.1535 4.50189 4.82806 4.82733C4.50263 5.15277 4.50263 5.6804 4.82806 6.00584L8.82214 9.99992L4.82806 13.994C4.50263 14.3194 4.50263 14.8471 4.82806 15.1725C5.1535 15.4979 5.68114 15.4979 6.00657 15.1725L10.0007 11.1784L13.9947 15.1725C14.3202 15.4979 14.8478 15.4979 15.1732 15.1725C15.4987 14.8471 15.4987 14.3194 15.1732 13.994L11.1792 9.99992L15.1732 6.00584C15.4987 5.6804 15.4987 5.15277 15.1732 4.82733C14.8478 4.50189 14.3202 4.50189 13.9947 4.82733L10.0007 8.82141L6.00657 4.82733Z" fill="white"/>
</svg>
