<svg width="24" height="24" viewBox="0 0 24 24" fill="none" xmlns="http://www.w3.org/2000/svg">
<path d="M20.25 3.9375H3.75C3.4019 3.9375 3.06806 4.07578 2.82192 4.32192C2.57578 4.56806 2.4375 4.9019 2.4375 5.25V18.75C2.4375 19.0981 2.57578 19.4319 2.82192 19.6781C3.06806 19.9242 3.4019 20.0625 3.75 20.0625H20.25C20.5981 20.0625 20.9319 19.9242 21.1781 19.6781C21.4242 19.4319 21.5625 19.0981 21.5625 18.75V5.25C21.5625 4.9019 21.4242 4.56806 21.1781 4.32192C20.9319 4.07578 20.5981 3.9375 20.25 3.9375ZM20.4375 18.75C20.4375 18.7997 20.4177 18.8474 20.3826 18.8826C20.3474 18.9177 20.2997 18.9375 20.25 18.9375H3.75C3.70027 18.9375 3.65258 18.9177 3.61742 18.8826C3.58225 18.8474 3.5625 18.7997 3.5625 18.75V5.25C3.5625 5.20027 3.58225 5.15258 3.61742 5.11742C3.65258 5.08225 3.70027 5.0625 3.75 5.0625H20.25C20.2997 5.0625 20.3474 5.08225 20.3826 5.11742C20.4177 5.15258 20.4375 5.20027 20.4375 5.25V18.75ZM17.0625 9C17.0625 9.14918 17.0032 9.29226 16.8977 9.39775C16.7923 9.50324 16.6492 9.5625 16.5 9.5625H7.5C7.35082 9.5625 7.20774 9.50324 7.10225 9.39775C6.99676 9.29226 6.9375 9.14918 6.9375 9C6.9375 8.85082 6.99676 8.70774 7.10225 8.60225C7.20774 8.49676 7.35082 8.4375 7.5 8.4375H16.5C16.6492 8.4375 16.7923 8.49676 16.8977 8.60225C17.0032 8.70774 17.0625 8.85082 17.0625 9ZM17.0625 12C17.0625 12.1492 17.0032 12.2923 16.8977 12.3977C16.7923 12.5032 16.6492 12.5625 16.5 12.5625H7.5C7.35082 12.5625 7.20774 12.5032 7.10225 12.3977C6.99676 12.2923 6.9375 12.1492 6.9375 12C6.9375 11.8508 6.99676 11.7077 7.10225 11.6023C7.20774 11.4968 7.35082 11.4375 7.5 11.4375H16.5C16.6492 11.4375 16.7923 11.4968 16.8977 11.6023C17.0032 11.7077 17.0625 11.8508 17.0625 12ZM17.0625 15C17.0625 15.1492 17.0032 15.2923 16.8977 15.3977C16.7923 15.5032 16.6492 15.5625 16.5 15.5625H7.5C7.35082 15.5625 7.20774 15.5032 7.10225 15.3977C6.99676 15.2923 6.9375 15.1492 6.9375 15C6.9375 14.8508 6.99676 14.7077 7.10225 14.6023C7.20774 14.4968 7.35082 14.4375 7.5 14.4375H16.5C16.6492 14.4375 16.7923 14.4968 16.8977 14.6023C17.0032 14.7077 17.0625 14.8508 17.0625 15Z" fill="#2D2D2D"/>
</svg>
