<svg width="20" height="21" viewBox="0 0 20 21" fill="none" xmlns="http://www.w3.org/2000/svg">
<path d="M10 14.25C10.3315 14.25 10.6495 14.3817 10.8839 14.6161C11.1183 14.8505 11.25 15.1685 11.25 15.5C11.25 15.8315 11.1183 16.1495 10.8839 16.3839C10.6495 16.6183 10.3315 16.75 10 16.75C9.66848 16.75 9.35054 16.6183 9.11612 16.3839C8.8817 16.1495 8.75 15.8315 8.75 15.5C8.75 15.1685 8.8817 14.8505 9.11612 14.6161C9.35054 14.3817 9.66848 14.25 10 14.25ZM10 9.25C10.3315 9.25 10.6495 9.3817 10.8839 9.61612C11.1183 9.85054 11.25 10.1685 11.25 10.5C11.25 10.8315 11.1183 11.1495 10.8839 11.3839C10.6495 11.6183 10.3315 11.75 10 11.75C9.66848 11.75 9.35054 11.6183 9.11612 11.3839C8.8817 11.1495 8.75 10.8315 8.75 10.5C8.75 10.1685 8.8817 9.85054 9.11612 9.61612C9.35054 9.3817 9.66848 9.25 10 9.25ZM10 4.25C10.3315 4.25 10.6495 4.3817 10.8839 4.61612C11.1183 4.85054 11.25 5.16848 11.25 5.5C11.25 5.83152 11.1183 6.14946 10.8839 6.38388C10.6495 6.6183 10.3315 6.75 10 6.75C9.66848 6.75 9.35054 6.6183 9.11612 6.38388C8.8817 6.14946 8.75 5.83152 8.75 5.5C8.75 5.16848 8.8817 4.85054 9.11612 4.61612C9.35054 4.3817 9.66848 4.25 10 4.25Z" fill="#A0A3BD"/>
</svg>
