<svg width="16" height="16" viewBox="0 0 16 16" fill="none" xmlns="http://www.w3.org/2000/svg">
<path d="M7.26884 1.3999L13.8688 2.34257L14.8115 8.94257L8.68284 15.0706C8.55782 15.1956 8.38828 15.2658 8.2115 15.2658C8.03473 15.2658 7.86519 15.1956 7.74017 15.0706L1.14017 8.47057C1.01539 8.34558 0.945313 8.17618 0.945313 7.99957C0.945312 7.82296 1.01539 7.65356 1.14017 7.52857L7.26884 1.3999ZM7.74017 2.8139L2.55484 7.9999L8.2115 13.6566L13.3975 8.47124L12.6902 3.52124L7.74017 2.8139ZM9.15484 7.05657C9.02749 6.93357 8.92591 6.78645 8.85604 6.62378C8.78616 6.4611 8.74938 6.28614 8.74784 6.1091C8.7463 5.93207 8.78003 5.75649 8.84708 5.59263C8.91412 5.42877 9.01312 5.2799 9.13831 5.15471C9.2635 5.02952 9.41237 4.93051 9.57623 4.86347C9.74009 4.79643 9.91567 4.7627 10.0927 4.76424C10.2697 4.76577 10.4447 4.80256 10.6074 4.87243C10.77 4.94231 10.9172 5.04389 11.0402 5.17124C11.283 5.42271 11.4174 5.75951 11.4144 6.1091C11.4114 6.4587 11.2711 6.79312 11.0239 7.04033C10.7767 7.28754 10.4423 7.42776 10.0927 7.4308C9.74311 7.43384 9.40631 7.29945 9.15484 7.05657Z" fill="#2D2D2D"/>
</svg>
