<svg width="16" height="16" viewBox="0 0 16 16" fill="none" xmlns="http://www.w3.org/2000/svg">
<path d="M3.5 4.97409V14.0001H12.5V4.97409L8.633 1.81009C8.45437 1.66403 8.23074 1.58424 8 1.58424C7.76926 1.58424 7.54563 1.66403 7.367 1.81009L3.5 4.97409ZM9.266 1.03609L13.316 4.35009C13.3734 4.39693 13.4197 4.45595 13.4516 4.52288C13.4834 4.58981 13.4999 4.66298 13.5 4.73709V14.5001C13.5 14.6327 13.4473 14.7599 13.3536 14.8536C13.2598 14.9474 13.1326 15.0001 13 15.0001H3C2.86739 15.0001 2.74022 14.9474 2.64645 14.8536C2.55268 14.7599 2.5 14.6327 2.5 14.5001V4.73709C2.49995 4.66306 2.51634 4.58994 2.54799 4.52301C2.57964 4.45609 2.62575 4.39703 2.683 4.35009L6.733 1.03609C7.09033 0.743721 7.5378 0.583984 7.9995 0.583984C8.4612 0.583984 8.90867 0.743721 9.266 1.03609Z" fill="#2D2D2D"/>
<path d="M8 7C8.26522 7 8.51957 6.89464 8.70711 6.70711C8.89464 6.51957 9 6.26522 9 6C9 5.73478 8.89464 5.48043 8.70711 5.29289C8.51957 5.10536 8.26522 5 8 5C7.73478 5 7.48043 5.10536 7.29289 5.29289C7.10536 5.48043 7 5.73478 7 6C7 6.26522 7.10536 6.51957 7.29289 6.70711C7.48043 6.89464 7.73478 7 8 7ZM8 8C7.46957 8 6.96086 7.78929 6.58579 7.41421C6.21071 7.03914 6 6.53043 6 6C6 5.46957 6.21071 4.96086 6.58579 4.58579C6.96086 4.21071 7.46957 4 8 4C8.53043 4 9.03914 4.21071 9.41421 4.58579C9.78929 4.96086 10 5.46957 10 6C10 6.53043 9.78929 7.03914 9.41421 7.41421C9.03914 7.78929 8.53043 8 8 8Z" fill="#2D2D2D"/>
</svg>
