<svg width="19" height="19" viewBox="0 0 19 19" fill="none" xmlns="http://www.w3.org/2000/svg">
<path d="M17.4183 9.29563C17.3937 9.24008 16.7981 7.91891 15.4741 6.59492C13.71 4.83078 11.4818 3.89844 9.02929 3.89844C6.57679 3.89844 4.34859 4.83078 2.58445 6.59492C1.26046 7.91891 0.662103 9.24219 0.640306 9.29563C0.608323 9.36756 0.591797 9.44541 0.591797 9.52414C0.591797 9.60287 0.608323 9.68072 0.640306 9.75266C0.664915 9.8082 1.26046 11.1287 2.58445 12.4527C4.34859 14.2161 6.57679 15.1484 9.02929 15.1484C11.4818 15.1484 13.71 14.2161 15.4741 12.4527C16.7981 11.1287 17.3937 9.8082 17.4183 9.75266C17.4503 9.68072 17.4668 9.60287 17.4668 9.52414C17.4668 9.44541 17.4503 9.36756 17.4183 9.29563ZM9.02929 14.0234C6.86507 14.0234 4.97437 13.2366 3.40921 11.6855C2.76701 11.0469 2.22064 10.3186 1.7871 9.52344C2.22052 8.72816 2.76691 7.99989 3.40921 7.36133C4.97437 5.81023 6.86507 5.02344 9.02929 5.02344C11.1935 5.02344 13.0842 5.81023 14.6494 7.36133C15.2928 7.99974 15.8404 8.728 16.275 9.52344C15.768 10.4698 13.5595 14.0234 9.02929 14.0234ZM9.02929 6.14844C8.36178 6.14844 7.70926 6.34638 7.15424 6.71723C6.59923 7.08808 6.16664 7.61518 5.9112 8.23188C5.65575 8.84858 5.58892 9.52718 5.71914 10.1819C5.84937 10.8366 6.1708 11.4379 6.64281 11.9099C7.11481 12.3819 7.71618 12.7034 8.37086 12.8336C9.02555 12.9638 9.70415 12.897 10.3208 12.6415C10.9375 12.3861 11.4647 11.9535 11.8355 11.3985C12.2064 10.8435 12.4043 10.1909 12.4043 9.52344C12.4034 8.62862 12.0475 7.77071 11.4147 7.13798C10.782 6.50525 9.92411 6.14937 9.02929 6.14844ZM9.02929 11.7734C8.58428 11.7734 8.14927 11.6415 7.77926 11.3942C7.40925 11.147 7.12086 10.7956 6.95056 10.3845C6.78026 9.97334 6.73571 9.52094 6.82252 9.08448C6.90934 8.64803 7.12363 8.24712 7.4383 7.93245C7.75297 7.61778 8.15388 7.40349 8.59034 7.31667C9.0268 7.22985 9.47919 7.27441 9.89033 7.44471C10.3015 7.61501 10.6529 7.90339 10.9001 8.2734C11.1473 8.64342 11.2793 9.07843 11.2793 9.52344C11.2793 10.1202 11.0422 10.6925 10.6203 11.1144C10.1983 11.5364 9.62603 11.7734 9.02929 11.7734Z" fill="#66738F"/>
</svg>
