<svg width="144" height="97" viewBox="0 0 144 97" fill="none" xmlns="http://www.w3.org/2000/svg">
<path d="M128.055 29.3522L126.217 38.2514L125.034 37.0974L123.022 38.5336L121.484 36.6232L118.036 39.1307L115.089 34.2021L111.802 36.1278L110.498 34.3307L106.324 36.6827L105.068 33.9928L107.994 19.8213L123.681 23.0603L128.055 29.3522Z" fill="#EBEBEB"/>
<path d="M123.681 23.0596L128.055 29.3514L122.613 28.2282L123.681 23.0596Z" fill="#DBDBDB"/>
<path d="M125.825 40.0291L123.132 53.0851L102.002 48.7229L104.677 35.7725L105.932 38.4605L110.108 36.1085L111.41 37.9056L114.699 35.9817L117.644 40.9104L121.094 38.4029L122.63 40.3113L124.645 38.8771L125.825 40.0291Z" fill="#EBEBEB"/>
<path d="M95.5834 38.4988L74.0506 39.8312L72.3398 12.1909L88.3296 11.2002L94.199 16.125L95.5834 38.4988Z" fill="#EBEBEB"/>
<path d="M88.3301 11.2002L94.1995 16.125L88.6546 16.4687L88.3301 11.2002Z" fill="#DBDBDB"/>
<path d="M82.3681 29.7997L82.2836 29.1757C82.0666 27.8835 82.4199 26.4378 83.5431 24.9267C84.5569 23.5827 85.106 22.6227 85.0445 21.5322C84.9754 20.3034 84.1594 19.5277 82.6407 19.5891C81.7727 19.6342 80.939 19.9422 80.2503 20.4723L79.5879 18.9882C80.3559 18.3642 81.6999 17.9034 82.9767 17.8362C85.7473 17.6826 87.0951 19.3222 87.2007 21.152C87.2929 22.7898 86.4442 24.0205 85.3652 25.4586C84.3744 26.7699 84.05 27.8509 84.1901 29.0739L84.2497 29.6998L82.3681 29.7997ZM82.0263 33.2C81.9764 32.3091 82.5428 31.6487 83.3857 31.6026C84.2285 31.5565 84.8429 32.1478 84.8929 33.0406C84.9389 33.8835 84.4225 34.5632 83.5316 34.6131C82.681 34.6611 82.0666 34.0429 82.0186 33.2H82.0263Z" fill="#DBDBDB"/>
<path d="M28.5084 25.0973L26.3426 24.1162L26.0412 24.7786C25.9967 24.8733 25.9272 24.954 25.8403 25.0122C25.7533 25.0704 25.6522 25.1038 25.5477 25.1089C25.4287 25.1128 25.3101 25.1243 25.1925 25.1434C25.0893 25.1587 24.9839 25.1457 24.8876 25.1058C24.7912 25.0659 24.7075 25.0006 24.6453 24.9169L24.221 24.3236L22.2876 25.7098L22.7119 26.3031C22.7709 26.3887 22.8056 26.4887 22.8124 26.5925C22.8192 26.6963 22.7977 26.8 22.7503 26.8925C22.6955 26.9981 22.6462 27.1064 22.6024 27.217C22.5644 27.3145 22.5005 27.3998 22.4176 27.4638C22.3348 27.5277 22.236 27.5679 22.132 27.5799L21.4082 27.6509L21.6405 30.0183L22.3682 29.9453C22.4726 29.937 22.5772 29.9573 22.6709 30.0039C22.7646 30.0506 22.8438 30.122 22.9 30.2103C22.9308 30.2602 22.9634 30.3082 22.998 30.3562C23.0325 30.4042 23.0671 30.4503 23.1036 30.4964C23.1698 30.577 23.2124 30.6744 23.2267 30.7778C23.2409 30.8811 23.2262 30.9864 23.1842 31.082L22.8808 31.7501L25.0485 32.7332L25.35 32.0669C25.3949 31.9723 25.4648 31.8918 25.552 31.834C25.6393 31.7761 25.7407 31.7431 25.8453 31.7386C25.963 31.7338 26.0803 31.7222 26.1967 31.7041C26.2999 31.6887 26.4053 31.7017 26.5016 31.7416C26.598 31.7815 26.6817 31.8468 26.7439 31.9306L27.1682 32.5239L29.1036 31.1377L28.6792 30.5444C28.6184 30.4595 28.5826 30.3593 28.5758 30.2551C28.569 30.151 28.5915 30.047 28.6408 29.9549C28.6943 29.8499 28.7424 29.7423 28.7848 29.6324C28.8218 29.5341 28.8853 29.4481 28.9684 29.384C29.0515 29.3199 29.1509 29.2803 29.2552 29.2695L29.9829 29.1965L29.7487 26.8292L29.021 26.9002C28.9173 26.9093 28.8131 26.8896 28.7199 26.8431C28.6267 26.7967 28.5482 26.7254 28.493 26.6372C28.4604 26.5873 28.4277 26.5393 28.3932 26.4913C28.3586 26.4433 28.324 26.3953 28.2876 26.3511C28.2218 26.2695 28.1795 26.1715 28.1653 26.0676C28.151 25.9637 28.1655 25.8579 28.2069 25.7617L28.5084 25.0973ZM27.2796 27.2881C27.5041 27.6014 27.6307 27.9742 27.6433 28.3595C27.6559 28.7448 27.5539 29.1251 27.3503 29.4524C27.1468 29.7797 26.8507 30.0393 26.4996 30.1984C26.1485 30.3574 25.7581 30.4088 25.3778 30.3459C24.9975 30.2831 24.6443 30.1089 24.363 29.8453C24.0818 29.5817 23.8849 29.2407 23.7975 28.8653C23.7101 28.4899 23.7359 28.097 23.8718 27.7362C24.0077 27.3755 24.2475 27.0632 24.5608 26.8388C24.981 26.5379 25.5034 26.4162 26.0132 26.5005C26.5231 26.5847 26.9786 26.868 27.2796 27.2881Z" fill="#EBEBEB"/>
<path d="M126.41 56.5088L124.966 57.3421L125.221 57.7837C125.259 57.847 125.278 57.9201 125.276 57.994C125.273 58.0679 125.25 58.1395 125.208 58.2003C125.163 58.2694 125.121 58.3405 125.083 58.4154C125.051 58.4816 125.001 58.5374 124.939 58.5762C124.877 58.615 124.805 58.6351 124.731 58.6342H124.225V60.3027H124.735C124.809 60.3018 124.881 60.322 124.943 60.3608C125.005 60.3995 125.055 60.4554 125.087 60.5216C125.125 60.5965 125.167 60.6675 125.211 60.7366C125.254 60.7974 125.277 60.8691 125.28 60.943C125.282 61.0169 125.263 61.0899 125.225 61.1533L124.97 61.5949L126.413 62.4282L126.671 61.9846C126.708 61.9217 126.762 61.8704 126.827 61.8365C126.892 61.8026 126.964 61.7874 127.037 61.7926H127.283C127.356 61.7876 127.429 61.8029 127.494 61.8368C127.558 61.8707 127.612 61.9219 127.65 61.9846L127.907 62.4301L129.349 61.5968L129.094 61.1533C129.057 61.0896 129.04 61.017 129.042 60.9437C129.045 60.8704 129.068 60.7994 129.109 60.7385C129.153 60.6694 129.195 60.5965 129.234 60.5235C129.265 60.4573 129.315 60.4015 129.378 60.3627C129.44 60.3239 129.512 60.3037 129.585 60.3046H130.096V58.6362H129.581C129.508 58.637 129.436 58.6169 129.374 58.5781C129.311 58.5393 129.262 58.4835 129.23 58.4173C129.192 58.3443 129.149 58.2714 129.105 58.2022C129.064 58.1414 129.041 58.0703 129.038 57.9971C129.036 57.9238 129.054 57.8512 129.09 57.7875L129.345 57.344L127.903 56.5107L127.646 56.9485C127.609 57.0114 127.555 57.0627 127.49 57.0966C127.425 57.1305 127.352 57.1457 127.279 57.1405H127.156H127.034C126.96 57.1454 126.887 57.1301 126.822 57.0962C126.757 57.0623 126.703 57.0112 126.665 56.9485L126.41 56.5088ZM127.156 58.1024C127.427 58.102 127.692 58.1819 127.917 58.332C128.142 58.482 128.317 58.6955 128.421 58.9454C128.525 59.1953 128.552 59.4703 128.499 59.7357C128.447 60.001 128.316 60.2448 128.125 60.4361C127.934 60.6274 127.69 60.7576 127.425 60.8103C127.159 60.863 126.884 60.8358 126.634 60.732C126.384 60.6283 126.171 60.4528 126.021 60.2277C125.871 60.0026 125.791 59.738 125.791 59.4675C125.791 59.2881 125.826 59.1104 125.895 58.9445C125.963 58.7787 126.064 58.6279 126.19 58.501C126.317 58.374 126.468 58.2733 126.634 58.2046C126.799 58.1358 126.977 58.1005 127.156 58.1005V58.1024Z" fill="#EBEBEB"/>
<path d="M32.891 18.0027L31.5682 19.0165L31.8734 19.4216C31.919 19.4793 31.947 19.5489 31.9541 19.6221C31.9613 19.6953 31.9473 19.7689 31.9138 19.8344C31.877 19.9091 31.845 19.9861 31.8178 20.0648C31.7941 20.1341 31.7515 20.1955 31.6949 20.242C31.6382 20.2884 31.5697 20.3182 31.4971 20.3278L30.9902 20.3931L31.2053 22.0462L31.7122 21.981C31.7859 21.9707 31.8611 21.9814 31.9291 22.012C31.997 22.0426 32.0549 22.0917 32.0962 22.1538C32.1424 22.2205 32.1924 22.2846 32.2459 22.3458C32.2954 22.4001 32.3282 22.4676 32.3404 22.5401C32.3527 22.6126 32.3439 22.6871 32.315 22.7547L32.123 23.227L33.659 23.8664L33.851 23.3941C33.8796 23.3263 33.9266 23.2679 33.9867 23.2255C34.0467 23.1831 34.1175 23.1583 34.1909 23.1541L34.3138 23.1406L34.4347 23.1214C34.5058 23.108 34.5791 23.1144 34.6468 23.1398C34.7145 23.1652 34.774 23.2086 34.8187 23.2654L35.1317 23.6744L36.4546 22.6606L36.1454 22.2555C36.1008 22.197 36.0734 22.1272 36.0662 22.0539C36.0591 21.9806 36.0726 21.9068 36.1051 21.8408C36.1415 21.7666 36.1736 21.6903 36.2011 21.6123C36.2248 21.543 36.2673 21.4816 36.324 21.4351C36.3806 21.3887 36.4491 21.3589 36.5218 21.3493L37.0286 21.284L36.8136 19.6309L36.3067 19.6962C36.2331 19.7066 36.1581 19.6962 36.0901 19.6659C36.0222 19.6357 35.9642 19.587 35.9227 19.5253C35.8747 19.4562 35.8248 19.3909 35.771 19.3333C35.7263 19.2777 35.6974 19.2111 35.6872 19.1405C35.6771 19.0699 35.6861 18.9979 35.7134 18.932L35.9054 18.4597L34.3694 17.8203L34.1774 18.2926C34.1485 18.3601 34.1014 18.4183 34.0414 18.4607C33.9814 18.503 33.9109 18.5279 33.8376 18.5326L33.7147 18.5442L33.6014 18.548C33.5304 18.5614 33.457 18.555 33.3893 18.5297C33.3216 18.5043 33.2622 18.4608 33.2174 18.404L32.891 18.0027ZM33.8376 19.4869C34.105 19.4525 34.3767 19.4981 34.6183 19.6179C34.8598 19.7377 35.0605 19.9264 35.195 20.1602C35.3294 20.3939 35.3916 20.6622 35.3738 20.9313C35.3559 21.2003 35.2588 21.4581 35.0946 21.672C34.9304 21.8859 34.7065 22.0464 34.4513 22.1332C34.196 22.2201 33.9207 22.2294 33.6601 22.1599C33.3996 22.0905 33.1654 21.9455 32.9872 21.7431C32.809 21.5407 32.6947 21.2901 32.6587 21.0229C32.6347 20.8445 32.6462 20.6632 32.6926 20.4893C32.7389 20.3155 32.8192 20.1525 32.9287 20.0097C33.0383 19.867 33.175 19.7473 33.331 19.6575C33.4869 19.5678 33.6591 19.5098 33.8376 19.4869Z" fill="#EBEBEB"/>
<path d="M23.0057 61.3217C23.0778 59.4657 23.0522 57.6071 22.9289 55.7537C22.6542 51.9266 22.0705 48.128 21.1836 44.395C20.6959 42.2945 20.0969 40.2286 19.4709 38.1646C19.4517 38.1012 19.3519 38.1185 19.3692 38.1838C21.3026 45.4606 22.8885 52.9678 22.7791 60.5326C22.7484 62.6446 22.5026 64.7278 22.3029 66.8321C22.3029 66.8878 22.3893 66.9108 22.4028 66.8532C22.8002 65.0465 22.9308 63.1611 23.0057 61.3217Z" fill="#EBEBEB"/>
<path d="M19.3688 38.1777C19.3688 38.1777 16.4427 45.6081 17.0975 47.3477C17.7522 49.0872 19.1039 49.4597 19.1039 49.4597C19.1039 49.4597 17.3125 52.0171 18.5643 54.4152C19.8162 56.8133 22.5963 56.7 22.7883 59.4187C22.7826 59.4321 22.9362 48.0638 19.3688 38.1777Z" fill="#EBEBEB"/>
<path d="M22.4641 54.7384C22.4688 54.7261 22.4688 54.7124 22.4641 54.7C22.08 49.6272 21.1282 44.6135 19.6263 39.7528C19.6263 39.7394 19.5975 39.7432 19.6014 39.7528C20.1812 41.9288 20.6932 44.1138 21.1374 46.3077C20.744 45.9351 20.2634 45.667 19.7396 45.5282C19.7396 45.5282 19.7242 45.5397 19.7396 45.5436C20.2899 45.7452 20.7846 46.0742 21.1834 46.5036C21.2679 46.9356 21.3524 47.3656 21.4311 47.7976C20.7764 47.0661 19.8702 46.7032 18.962 46.3576C18.9599 46.3585 18.9582 46.36 18.957 46.3619C18.9557 46.3638 18.9551 46.366 18.9551 46.3682C18.9551 46.3704 18.9557 46.3726 18.957 46.3745C18.9582 46.3764 18.9599 46.3779 18.962 46.3788C19.9086 46.7628 20.8494 47.2581 21.4906 48.0741C21.7134 49.3068 21.9092 50.5439 22.0782 51.7855C21.6054 51.2902 20.9992 50.9427 20.3329 50.7852C20.3118 50.7852 20.3002 50.8101 20.3214 50.8159C21.0058 51.0174 21.6168 51.4137 22.0801 51.9564H22.0916C22.1492 52.3916 22.2042 52.8287 22.2567 53.2677C21.891 52.9582 21.4781 52.7093 21.0337 52.5304C21.0222 52.5304 21.0145 52.5439 21.0337 52.5477C21.4872 52.7442 21.9025 53.0191 22.2606 53.3599C22.2606 53.3599 22.2702 53.3599 22.2759 53.3599C22.3239 53.7765 22.3719 54.1932 22.4142 54.6098C21.7548 53.8128 20.8992 53.2013 19.9316 52.8357C19.9275 52.8357 19.9236 52.8373 19.9207 52.8402C19.9179 52.8431 19.9162 52.847 19.9162 52.8511C19.9162 52.8552 19.9179 52.8591 19.9207 52.8619C19.9236 52.8648 19.9275 52.8664 19.9316 52.8664C20.8871 53.2876 21.7263 53.9338 22.3777 54.75C22.3848 54.7589 22.3945 54.7655 22.4055 54.7689C22.4164 54.7724 22.4281 54.7724 22.4391 54.7692C22.5025 55.4085 22.5601 56.0479 22.6062 56.6892C22.6062 56.6988 22.6215 56.6988 22.6215 56.6892C22.5716 56.0453 22.5191 55.3951 22.4641 54.7384Z" fill="white"/>
<path d="M20.112 44.7962C19.5821 44.4664 18.9767 44.2774 18.3533 44.2471C18.3503 44.2471 18.3473 44.2483 18.3452 44.2504C18.343 44.2526 18.3418 44.2555 18.3418 44.2586C18.3418 44.2616 18.343 44.2646 18.3452 44.2667C18.3473 44.2689 18.3503 44.2701 18.3533 44.2701C18.9561 44.3844 19.541 44.5781 20.0928 44.8461C20.1159 44.8519 20.1332 44.8116 20.112 44.7962Z" fill="white"/>
<path d="M20.468 52.6621C20.0607 52.4284 19.6122 52.2752 19.147 52.2109C19.1317 52.2109 19.1297 52.2321 19.147 52.2359C19.6013 52.327 20.0407 52.4808 20.4526 52.6929C20.4699 52.7025 20.4853 52.6717 20.468 52.6621Z" fill="white"/>
<path d="M30.7011 47.477C29.4633 48.3326 28.3264 49.3258 27.3123 50.4376C26.2665 51.6148 25.4598 52.9842 24.9373 54.4696C23.8252 57.5643 23.2272 60.8201 23.167 64.108C23.1297 65.9288 23.3044 67.7477 23.6874 69.5282C23.6905 69.5411 23.6984 69.5524 23.7096 69.5596C23.7208 69.5668 23.7343 69.5695 23.7474 69.567C23.7605 69.5646 23.7721 69.5571 23.7799 69.5463C23.7876 69.5355 23.7909 69.5222 23.7891 69.509C23.3125 66.3671 23.3307 63.17 23.8429 60.0338C24.3459 56.9618 25.135 53.6171 27.0896 51.1192C28.1533 49.7579 29.48 48.6885 30.7914 47.5826C30.8605 47.5211 30.7722 47.4271 30.7011 47.477Z" fill="#EBEBEB"/>
<path d="M23.5977 61.8921C24.3023 60.7524 25.1303 59.6939 26.0668 58.7356C27.5317 57.2707 28.7644 56.23 28.9564 55.2623C29.1484 54.2947 27.4895 53.5804 27.4895 53.5804C27.4895 53.5804 29.5151 53.9452 30.07 53.0947C30.6249 52.2441 30.8917 47.3174 30.8917 47.3174C30.8917 47.3174 27.2053 49.9497 25.4869 53.6399C23.7685 57.3302 23.5977 61.8921 23.5977 61.8921Z" fill="#EBEBEB"/>
<path d="M29.5688 51.9385C29.326 51.9024 29.08 51.894 28.8353 51.9136C28.8065 51.9136 28.8085 51.9635 28.8353 51.9654C29.0773 51.9654 29.3211 51.9539 29.563 51.9654C29.5658 51.9647 29.5683 51.9632 29.5703 51.9612C29.5723 51.9591 29.5736 51.9566 29.5742 51.9538C29.5748 51.951 29.5746 51.9481 29.5737 51.9454C29.5727 51.9427 29.571 51.9403 29.5688 51.9385Z" fill="white"/>
<path d="M26.9218 56.7178C26.5325 56.7257 26.1477 56.8024 25.7852 56.9443C25.7852 56.9443 25.7852 56.9635 25.7852 56.9616C26.1692 56.8714 26.5397 56.8349 26.9199 56.7696C26.9248 56.7674 26.9291 56.7639 26.9321 56.7594C26.9352 56.755 26.9369 56.7497 26.9371 56.7443C26.9373 56.7389 26.936 56.7335 26.9333 56.7288C26.9306 56.7241 26.9266 56.7203 26.9218 56.7178Z" fill="white"/>
<path d="M26.1267 55.0665C25.9651 55.0652 25.8037 55.0793 25.6448 55.1087C25.6418 55.1098 25.6393 55.1118 25.6375 55.1144C25.6357 55.1169 25.6348 55.12 25.6348 55.1231C25.6348 55.1263 25.6357 55.1293 25.6375 55.1319C25.6393 55.1345 25.6418 55.1364 25.6448 55.1375C25.8057 55.1468 25.9672 55.1398 26.1267 55.1164C26.1333 55.1164 26.1397 55.1138 26.1443 55.1091C26.149 55.1044 26.1517 55.0981 26.1517 55.0914C26.1517 55.0848 26.149 55.0785 26.1443 55.0738C26.1397 55.0691 26.1333 55.0665 26.1267 55.0665Z" fill="white"/>
<path d="M12.7906 52.7027C13.9905 53.1095 15.1403 53.6512 16.2178 54.3174C17.3359 55.0279 18.3055 55.9486 19.0729 57.0285C20.6874 59.2759 21.9236 61.7722 22.7324 64.4185C23.1835 65.8838 23.4619 67.3968 23.5618 68.9267C23.5597 68.9366 23.5543 68.9455 23.5464 68.9518C23.5386 68.9582 23.5288 68.9617 23.5186 68.9617C23.5085 68.9617 23.4987 68.9582 23.4908 68.9518C23.483 68.9455 23.4775 68.9366 23.4754 68.9267C23.1365 66.2741 22.3837 63.691 21.2444 61.2717C20.125 58.9005 18.7138 56.3776 16.5558 54.807C15.3807 53.9526 14.0598 53.392 12.7426 52.8006C12.6735 52.7776 12.7215 52.6797 12.7906 52.7027Z" fill="#EBEBEB"/>
<path d="M21.8713 62.727C21.0371 61.9681 20.1222 61.303 19.143 60.7436C17.6185 59.8969 16.3801 59.3401 16.0018 58.6009C15.6236 57.8617 16.8006 56.9017 16.8006 56.9017C16.8006 56.9017 15.2454 57.6697 14.6002 57.1033C13.9551 56.5369 12.5996 52.6201 12.5996 52.6201C12.5996 52.6201 16.1919 53.8969 18.4326 56.487C20.6732 59.0771 21.8713 62.727 21.8713 62.727Z" fill="#EBEBEB"/>
<path d="M18.8902 59.1219C18.537 59.0973 18.1824 59.141 17.8457 59.2505C17.8457 59.2505 17.8457 59.2678 17.8457 59.2659C18.1892 59.207 18.5362 59.1711 18.8844 59.1584C18.9094 59.1584 18.9151 59.1238 18.8902 59.1219Z" fill="white"/>
<path d="M15.7565 55.0127C15.5954 54.9995 15.4332 55.0086 15.2746 55.0396C15.2573 55.0396 15.2631 55.0703 15.2746 55.0684C15.4339 55.0511 15.5895 55.0568 15.7469 55.053C15.7518 55.0532 15.7566 55.0517 15.7605 55.0487C15.7644 55.0458 15.7671 55.0416 15.7683 55.0368C15.7694 55.032 15.7689 55.027 15.7667 55.0226C15.7646 55.0182 15.761 55.0147 15.7565 55.0127Z" fill="white"/>
<path d="M26.5046 73.8789H18.3965L19.5523 65.4098L19.848 63.2383H25.0531L25.3488 65.4098L26.5046 73.8789Z" fill="#DBDBDB"/>
<path d="M25.3492 65.4098H19.5527L19.8484 63.2383H25.0535L25.3492 65.4098Z" fill="#C7C7C7"/>
<path d="M25.7966 62.4854H19.1035V64.3247H25.7966V62.4854Z" fill="#DBDBDB"/>
<path d="M13.2402 73.8782L27.8342 73.8321L42.4281 73.8149L71.6159 73.7822L100.804 73.8149L115.398 73.8321L129.992 73.8782L115.398 73.9262L100.804 73.9416L71.6159 73.9742L42.4281 73.9416L27.8342 73.9243L13.2402 73.8782Z" fill="#263238"/>
<path d="M71.9994 88.1883C102.405 88.1883 127.053 85.4874 127.053 82.1557C127.053 78.824 102.405 76.123 71.9994 76.123C41.5939 76.123 16.9453 78.824 16.9453 82.1557C16.9453 85.4874 41.5939 88.1883 71.9994 88.1883Z" fill="#EBEBEB"/>
<path d="M59.1847 81.1568C58.7374 81.3085 45.9099 81.3488 45.4184 81.0455C45.2264 80.9303 45.1169 79.0621 45.0344 76.8004C45.0171 76.3127 45.0036 75.8077 44.9921 75.297L43.9688 68.4541L52.5454 68.3984L53.3537 75.2432L53.3211 76.7485C53.3211 76.7485 58.2401 78.9277 58.7431 79.3232C59.2462 79.7188 59.6321 81.0052 59.1847 81.1568Z" fill="#FFC4C0"/>
<path d="M59.185 81.1577C58.7376 81.3094 45.9101 81.3497 45.4186 81.0464C45.192 80.9043 45.0691 78.176 45 75.2979L53.3443 75.2441L53.3117 76.7494C53.3117 76.7494 58.2307 78.9286 58.7338 79.3241C59.2368 79.7197 59.6323 81.0061 59.185 81.1577Z" fill="white"/>
<path d="M59.1836 81.1573C58.7362 81.309 45.9087 81.3493 45.4172 81.046C45.2252 80.9308 45.1158 79.0626 45.0332 76.8009L53.3026 76.749C53.3026 76.749 58.2217 78.9282 58.7247 79.3237C59.2278 79.7193 59.631 81.0057 59.1836 81.1573Z" fill="#A6A6A6"/>
<path d="M58.9984 80.6447C56.848 80.5986 48.1696 80.6197 46.0403 80.7387C46.023 80.7387 46.023 80.7503 46.0403 80.7522C48.1715 80.8424 56.8499 80.7522 58.9984 80.6792C59.0445 80.6773 59.0445 80.6447 58.9984 80.6447Z" fill="#263238"/>
<path d="M57.9052 78.8647C57.666 78.8593 57.4284 78.9036 57.2073 78.9949C56.9862 79.0861 56.7865 79.2222 56.6207 79.3946C56.3186 79.7023 56.1479 80.1154 56.1445 80.5466C56.1445 80.5601 56.1676 80.5601 56.1695 80.5466C56.2409 80.1218 56.4477 79.7315 56.7592 79.4339C57.0706 79.1363 57.4699 78.9474 57.8975 78.8954C57.9016 78.8964 57.9059 78.8958 57.9095 78.8936C57.9131 78.8915 57.9157 78.888 57.9167 78.8839C57.9177 78.8798 57.9171 78.8755 57.9149 78.8719C57.9127 78.8683 57.9092 78.8657 57.9052 78.8647Z" fill="#263238"/>
<path d="M54.1436 76.9602C53.2835 76.9506 52.287 77.2578 51.7532 77.9643C51.734 77.9912 51.7724 78.02 51.7974 78.0066C52.5489 77.6099 53.3406 77.2945 54.159 77.0658C54.1717 77.0623 54.1826 77.0543 54.1898 77.0434C54.197 77.0324 54.1999 77.0192 54.198 77.0062C54.1961 76.9932 54.1896 76.9814 54.1795 76.9729C54.1695 76.9644 54.1568 76.9599 54.1436 76.9602Z" fill="#263238"/>
<path d="M54.8125 77.2158C53.9504 77.2158 52.954 77.5153 52.4221 78.22C52.401 78.2488 52.4394 78.2776 52.4663 78.2641C53.2167 77.8661 54.0078 77.55 54.826 77.3214C54.8384 77.318 54.8493 77.3102 54.8565 77.2994C54.8636 77.2886 54.8667 77.2756 54.8651 77.2628C54.8634 77.2499 54.8572 77.2381 54.8476 77.2295C54.8379 77.2209 54.8255 77.216 54.8125 77.2158Z" fill="#263238"/>
<path d="M55.4757 77.4727C54.6155 77.4727 53.619 77.7703 53.0853 78.4768C53.0661 78.5037 53.1045 78.5325 53.1294 78.5191C53.8809 78.1224 54.6726 77.807 55.491 77.5783C55.5037 77.5748 55.5146 77.5668 55.5218 77.5559C55.529 77.5449 55.5319 77.5317 55.53 77.5187C55.5282 77.5057 55.5216 77.4939 55.5116 77.4854C55.5016 77.4769 55.4888 77.4724 55.4757 77.4727Z" fill="#263238"/>
<path d="M56.1424 77.7297C55.2803 77.7201 54.2838 78.0273 53.752 78.7339C53.7309 78.7608 53.7712 78.7896 53.7962 78.7761C54.5475 78.3791 55.3392 78.0637 56.1578 77.8353C56.1704 77.8319 56.1814 77.8239 56.1886 77.8129C56.1957 77.8019 56.1987 77.7887 56.1968 77.7757C56.1949 77.7627 56.1883 77.7509 56.1783 77.7424C56.1683 77.7339 56.1555 77.7294 56.1424 77.7297Z" fill="#263238"/>
<path d="M46.5813 78.6944C45.6213 78.6944 45.6213 80.2015 46.5813 80.1958C47.5413 80.19 47.549 78.6886 46.5813 78.6944Z" fill="#263238"/>
<path d="M55.0667 74.66C54.6309 74.2991 54.0818 74.66 53.8149 75.0306C53.3706 75.6855 53.1058 76.4455 53.0469 77.2347C53.0469 77.252 53.0603 77.2597 53.0738 77.2597C53.0772 77.2759 53.0844 77.2911 53.0949 77.304C53.1054 77.3169 53.1189 77.327 53.1341 77.3336C53.1493 77.3402 53.1659 77.343 53.1825 77.3418C53.1991 77.3407 53.2151 77.3356 53.2293 77.3269C53.8398 76.9026 54.5464 76.5224 55.0091 75.9215C55.2722 75.572 55.4872 74.996 55.0667 74.66ZM54.0184 76.4917C53.7227 76.7087 53.4174 76.9103 53.1294 77.1387C53.283 76.7087 53.4155 76.2747 53.6114 75.86C53.7018 75.6612 53.8058 75.4687 53.9224 75.284C54.1144 74.9979 54.9515 74.276 55.0398 75.2111C55.0898 75.7237 54.3698 76.2344 54.0184 76.4917Z" fill="#263238"/>
<path d="M50.9042 77.5611C51.653 77.6724 52.4268 77.4574 53.1621 77.3403C53.1781 77.3361 53.1929 77.3283 53.2053 77.3174C53.2176 77.3065 53.2273 77.2928 53.2335 77.2775C53.2396 77.2622 53.2421 77.2457 53.2407 77.2292C53.2393 77.2128 53.2341 77.1969 53.2255 77.1828C53.2283 77.1807 53.2305 77.1779 53.2321 77.1748C53.2337 77.1716 53.2345 77.1681 53.2345 77.1646C53.2345 77.1611 53.2337 77.1576 53.2321 77.1544C53.2305 77.1513 53.2283 77.1485 53.2255 77.1464C52.6346 76.6194 51.9155 76.2572 51.1404 76.0961C50.6873 76.0097 50.046 76.1345 49.9884 76.6971C49.9193 77.227 50.4665 77.492 50.9042 77.5611ZM50.382 77.0734C49.806 76.3361 50.9061 76.2728 51.2364 76.3496C51.4506 76.4032 51.661 76.4712 51.8661 76.5531C52.2861 76.7272 52.6968 76.9227 53.0969 77.1387C52.7321 77.1752 52.373 77.2404 52.0101 77.2904C51.5762 77.348 50.7045 77.4785 50.382 77.0734Z" fill="#263238"/>
<path d="M31.3574 36.8262C31.3574 36.8262 41.3165 53.7683 41.5833 54.9587C41.9923 56.7865 44.16 74.8364 44.16 74.8364L54.528 74.6444C54.528 74.6444 52.7424 58.7295 51.0509 53.486C49.8336 49.7094 41.0438 37.1833 41.0438 37.1833L31.3574 36.8262Z" fill="#37474F"/>
<path d="M53.5846 73.0622C52.0966 73.0507 46.8223 72.9912 44.8409 73.1755C44.8255 73.1755 44.8275 73.2024 44.8409 73.2043C45.5225 73.3022 52.0946 73.1506 53.5826 73.1026C53.5858 73.1037 53.5891 73.1041 53.5924 73.1037C53.5956 73.1033 53.5988 73.1021 53.6015 73.1003C53.6043 73.0984 53.6066 73.096 53.6082 73.0931C53.6098 73.0902 53.6108 73.087 53.6109 73.0837C53.6111 73.0804 53.6105 73.0771 53.6091 73.0741C53.6078 73.0711 53.6057 73.0684 53.6032 73.0663C53.6006 73.0642 53.5976 73.0628 53.5943 73.0621C53.5911 73.0614 53.5878 73.0614 53.5846 73.0622Z" fill="#263238"/>
<path d="M33.0572 38.3816C33.71 39.405 34.4012 40.4072 35.0655 41.4229C35.7298 42.4386 36.398 43.4542 37.0565 44.468C38.3698 46.516 39.6498 48.5774 40.8965 50.6523C41.505 51.6141 42.0255 52.6288 42.4517 53.684C42.8408 54.7395 43.1332 55.8281 43.3253 56.9365C43.5289 58.0482 43.6633 59.1714 43.7881 60.2946C43.9161 61.4888 44.0498 62.6837 44.1893 63.8792C44.462 66.3253 44.7353 68.7714 45.0092 71.2174C45.0418 71.517 45.0745 71.8165 45.1052 72.1179C45.1052 72.1621 45.0303 72.1698 45.0245 72.1179C44.7193 69.6891 44.4658 67.2507 44.1893 64.8219C44.0511 63.6098 43.9135 62.3982 43.7765 61.1874C43.6479 60.0603 43.525 58.9314 43.3503 57.812C43.19 56.7071 42.9461 55.616 42.6207 54.548C42.2622 53.4422 41.7818 52.3796 41.1884 51.38C39.9884 49.3083 38.7173 47.2731 37.4463 45.236C36.1753 43.1989 34.8697 41.1445 33.5295 39.1323C33.3644 38.8846 33.1973 38.637 33.0245 38.3931C33.0111 38.3797 33.0457 38.3624 33.0572 38.3816Z" fill="#263238"/>
<path d="M34.6214 82.1558C34.1491 82.127 21.9494 77.1849 21.6115 76.7164C21.5965 76.6889 21.5898 76.6575 21.5923 76.6262C21.5923 76.2057 22.439 74.7388 23.1456 72.8112C23.1898 72.6883 23.5046 72.1161 23.9405 71.3462C25.152 69.2361 27.264 65.6016 27.264 65.6016L35.2378 68.7696L31.4208 74.4816L30.8275 75.864C30.8275 75.864 34.5696 79.7328 34.8845 80.28C35.1994 80.8272 35.0918 82.1827 34.6214 82.1558Z" fill="#FFC4C0"/>
<path d="M34.6214 82.1553C34.1491 82.1265 21.9494 77.1844 21.6115 76.7159C21.5965 76.6884 21.5898 76.657 21.5923 76.6257C21.5923 76.2052 22.439 74.7383 23.1456 72.8107C23.1898 72.6878 23.5046 72.1156 23.9405 71.3457L31.4285 74.4811L30.8352 75.8635C30.8352 75.8635 34.5773 79.7323 34.8922 80.2795C35.207 80.8267 35.0918 82.1822 34.6214 82.1553Z" fill="white"/>
<path d="M34.6207 82.1552C34.1484 82.1264 21.9487 77.1843 21.6108 76.7158C21.4802 76.5373 22.0255 74.8726 23.1468 72.8105L30.8268 75.8653C30.8268 75.8653 34.5689 79.7302 34.8857 80.2813C35.2025 80.8323 35.0911 82.1821 34.6207 82.1552Z" fill="#A6A6A6"/>
<path d="M34.6406 81.61C32.6649 80.7614 24.6124 77.5243 22.5945 76.8369C22.5772 76.8369 22.5734 76.8369 22.5945 76.8484C24.5356 77.7316 32.6131 80.9035 34.6329 81.6484C34.6713 81.658 34.6828 81.6273 34.6406 81.61Z" fill="#263238"/>
<path d="M34.295 79.5502C34.0759 79.454 33.8392 79.4043 33.5999 79.4043C33.3606 79.4043 33.124 79.454 32.9049 79.5502C32.511 79.7227 32.1988 80.0404 32.0332 80.4373C32.0332 80.4488 32.0505 80.4584 32.0562 80.4469C32.2826 80.0788 32.6222 79.7939 33.024 79.635C33.4259 79.4761 33.8685 79.4518 34.2854 79.5656C34.2886 79.5647 34.2914 79.5626 34.2931 79.5598C34.2949 79.5569 34.2956 79.5535 34.295 79.5502Z" fill="#263238"/>
<path d="M31.5239 76.3749C30.731 76.0428 29.6903 75.9545 28.9319 76.4095C28.9031 76.4268 28.932 76.4671 28.9569 76.4652C29.8023 76.3794 30.6545 76.3839 31.499 76.4786C31.512 76.48 31.525 76.4767 31.5357 76.4692C31.5464 76.4616 31.554 76.4505 31.5571 76.4378C31.5601 76.4251 31.5585 76.4117 31.5524 76.4001C31.5463 76.3885 31.5362 76.3796 31.5239 76.3749Z" fill="#263238"/>
<path d="M32.0454 76.8622C31.2525 76.5301 30.2118 76.4418 29.4534 76.8968C29.4246 76.9141 29.4534 76.9544 29.4784 76.9525C30.3238 76.8658 31.1761 76.8703 32.0205 76.9659C32.0335 76.9673 32.0465 76.964 32.0572 76.9564C32.0679 76.9489 32.0755 76.9378 32.0786 76.9251C32.0816 76.9124 32.0799 76.899 32.0738 76.8874C32.0677 76.8758 32.0576 76.8669 32.0454 76.8622Z" fill="#263238"/>
<path d="M32.5678 77.3496C31.7729 77.0174 30.7323 76.9291 29.9758 77.3841C29.9451 77.4014 29.9758 77.4417 29.9989 77.4398C30.8442 77.3531 31.6965 77.3576 32.5409 77.4532C32.5542 77.4555 32.5678 77.4526 32.5791 77.4453C32.5904 77.438 32.5985 77.4267 32.6019 77.4137C32.6052 77.4007 32.6036 77.3869 32.5973 77.375C32.591 77.3631 32.5805 77.3541 32.5678 77.3496Z" fill="#263238"/>
<path d="M33.0873 77.8371C32.2925 77.505 31.2537 77.4166 30.4953 77.8698C30.4646 77.889 30.4953 77.9293 30.5184 77.9274C31.3638 77.8406 32.216 77.8451 33.0605 77.9408C33.0737 77.943 33.0873 77.9402 33.0986 77.9329C33.1099 77.9256 33.118 77.9143 33.1214 77.9013C33.1248 77.8883 33.1231 77.8745 33.1168 77.8626C33.1105 77.8507 33.1 77.8416 33.0873 77.8371Z" fill="#263238"/>
<path d="M23.8626 75.1439C22.966 74.7868 22.4092 76.1826 23.3096 76.5397C24.2101 76.8968 24.7688 75.501 23.8626 75.1439Z" fill="#263238"/>
<path d="M33.2425 74.5888C32.9718 74.0915 32.3324 74.2144 31.9427 74.4621C31.2861 74.9019 30.7565 75.5064 30.4067 76.2151C30.4051 76.2182 30.4043 76.2216 30.4043 76.225C30.4043 76.2285 30.405 76.2319 30.4065 76.2351C30.408 76.2382 30.4101 76.241 30.4128 76.2432C30.4155 76.2454 30.4187 76.2469 30.422 76.2477C30.422 76.3111 30.4643 76.3859 30.5392 76.3706C31.2668 76.2035 32.0636 76.1171 32.7164 75.7331C33.0908 75.5104 33.4979 75.0592 33.2425 74.5888ZM31.5817 75.8925C31.2265 75.9827 30.8694 76.0557 30.518 76.1594C30.8087 75.8092 31.1169 75.4741 31.4416 75.1552C31.6014 75.003 31.7714 74.8619 31.9504 74.7328C32.2288 74.5408 33.2809 74.1856 33.0121 75.0861C32.8643 75.5834 32.006 75.785 31.5817 75.8925Z" fill="#263238"/>
<path d="M28.2953 75.7155C28.9481 76.0995 29.7449 76.1898 30.4707 76.3587C30.5456 76.376 30.5955 76.3011 30.5897 76.2359C30.5933 76.2355 30.5968 76.2342 30.5997 76.2321C30.6027 76.23 30.605 76.2271 30.6066 76.2239C30.6081 76.2206 30.6088 76.217 30.6085 76.2133C30.6083 76.2097 30.6071 76.2062 30.6051 76.2032C30.2558 75.4932 29.7261 74.8873 29.0691 74.4464C28.6851 74.1968 28.0419 74.072 27.7692 74.5674C27.4966 75.0627 27.9132 75.4909 28.2953 75.7155ZM27.9958 75.0666C27.7289 74.1661 28.7792 74.5232 29.0576 74.7171C29.2363 74.8464 29.4057 74.9882 29.5644 75.1415C29.8885 75.461 30.1961 75.7968 30.486 76.1475C30.1347 76.0439 29.7776 75.969 29.4224 75.8787C28.9923 75.7635 28.1417 75.5715 27.9958 75.0666Z" fill="#263238"/>
<path d="M32.0413 74.1627L23.1152 70.5589C23.1152 70.5589 34.1821 54.2868 34.2628 53.0753C34.3357 52.004 29.4743 42.6689 29.2842 39.9483C29.0768 37.0107 30.49 34.7393 32.0452 33.3281L41.2516 37.243C41.2516 37.243 40.28 38.7963 38.7556 39.6622C38.7556 39.6622 43.4768 50.4526 43.208 53.7704C42.9392 57.0881 32.0413 74.1627 32.0413 74.1627Z" fill="#37474F"/>
<path d="M32.4368 72.465C31.1466 71.9101 31.5248 72.0503 30.2269 71.505C29.5933 71.2401 25.4269 69.5063 24.7856 69.3623C24.7722 69.3623 24.7626 69.3815 24.776 69.3892C25.3309 69.729 29.5318 71.3898 30.1712 71.6433C31.4787 72.1578 31.1082 71.9965 32.4214 72.4957C32.4234 72.4984 32.426 72.5004 32.429 72.5018C32.432 72.5031 32.4353 72.5036 32.4385 72.5033C32.4418 72.5031 32.4449 72.5019 32.4476 72.5001C32.4503 72.4982 32.4525 72.4957 32.454 72.4928C32.4554 72.4899 32.4561 72.4866 32.456 72.4834C32.4558 72.4801 32.4549 72.4769 32.4531 72.4741C32.4514 72.4713 32.449 72.4691 32.4462 72.4675C32.4433 72.4659 32.4401 72.465 32.4368 72.465Z" fill="#263238"/>
<path d="M40.2645 39.4645C39.306 39.6879 38.3682 39.9924 37.4613 40.3746C37.4576 40.3758 37.4542 40.3778 37.4513 40.3804C37.4484 40.3829 37.4461 40.386 37.4444 40.3895C37.4427 40.393 37.4417 40.3968 37.4415 40.4006C37.4412 40.4045 37.4418 40.4084 37.443 40.412C37.4443 40.4157 37.4462 40.419 37.4488 40.4219C37.4514 40.4248 37.4545 40.4272 37.458 40.4289C37.4614 40.4306 37.4652 40.4316 37.4691 40.4318C37.4729 40.432 37.4768 40.4315 37.4805 40.4302C38.4213 40.1557 39.3774 39.8984 40.3029 39.5739C40.3739 39.549 40.3374 39.4491 40.2645 39.4645Z" fill="#263238"/>
<path d="M39.1677 39.0918C39.0782 39.251 38.9993 39.4158 38.9315 39.5853C38.8652 39.7139 38.8242 39.854 38.8105 39.9981C38.8105 40.0269 38.8489 40.0326 38.8662 40.0154C38.9626 39.9001 39.0403 39.7706 39.0966 39.6314C39.1753 39.4797 39.256 39.3299 39.3309 39.1744C39.3827 39.0611 39.2272 38.9882 39.1677 39.0918Z" fill="#263238"/>
<path d="M39.2836 38.2204C39.3412 38.0783 39.3969 37.9382 39.4564 37.7961C39.516 37.654 39.5908 37.5081 39.6484 37.3583C39.6484 37.3353 39.6945 37.3583 39.6849 37.3756C39.6273 37.5177 39.5908 37.6674 39.5467 37.8134C39.5025 37.9593 39.4526 38.1052 39.4046 38.2511C39.3144 38.5218 39.2126 38.7906 39.0878 39.0537C39.2389 39.0612 39.3897 39.035 39.5294 38.9769C39.6721 38.8856 39.7817 38.751 39.8424 38.5929C39.923 38.4354 39.9979 38.2742 40.0804 38.1167C40.1821 37.9465 40.2676 37.7672 40.3358 37.581C40.3358 37.558 40.3819 37.581 40.3723 37.5983C40.2471 37.9919 40.0831 38.372 39.8827 38.733C39.7963 38.8732 39.7291 39.021 39.5716 39.0748C39.4012 39.1225 39.2229 39.1349 39.0475 39.1113C39.0244 39.1113 38.9976 39.1113 39.0052 39.0767C39.0839 38.7869 39.1768 38.5011 39.2836 38.2204Z" fill="#263238"/>
<path d="M38.8918 40.014C39.2201 40.7071 39.5081 41.3983 39.8134 42.0895C40.1187 42.7807 40.3894 43.4489 40.664 44.1362C41.2131 45.5225 41.7046 46.9356 42.1366 48.3602C42.3497 49.0668 42.5475 49.7791 42.7241 50.4972C42.9187 51.213 43.0611 51.942 43.1504 52.6783C43.2274 53.4135 43.1622 54.1566 42.9584 54.8671C42.7466 55.5695 42.4749 56.2523 42.1462 56.9081C41.9446 57.3228 41.8774 57.2671 41.9734 57.0578C42.248 56.4627 42.968 54.6598 42.9161 53.1449C42.8741 52.4197 42.7623 51.7002 42.582 50.9964C42.4144 50.2706 42.2256 49.5506 42.0156 48.8364C41.6067 47.4271 41.1209 46.0466 40.6217 44.6681C40.3414 43.9001 40.0457 43.1321 39.7577 42.3641C39.4697 41.5961 39.1817 40.8895 38.8592 40.0409C38.8496 40.0063 38.8822 39.9929 38.8918 40.014Z" fill="#263238"/>
<path d="M32.1165 37.7228C32.2759 37.6633 32.5005 37.7612 32.6618 37.7881C32.8707 37.8236 33.0817 37.8447 33.2935 37.8515C33.503 37.8589 33.7128 37.8518 33.9213 37.8304C34.1313 37.8249 34.3372 37.7704 34.5223 37.671C34.826 37.4498 35.0863 37.1744 35.2903 36.8588C35.5333 36.5364 35.734 36.184 35.8874 35.8105C35.8874 35.7875 35.9277 35.8105 35.92 35.8259C35.8528 36.039 35.8029 36.254 35.728 36.4633C35.6453 36.66 35.5464 36.8494 35.4323 37.0297C35.2475 37.3926 34.9741 37.703 34.6375 37.9321C34.2669 38.1433 33.7907 38.1241 33.3779 38.1068C33.1385 38.0929 32.9005 38.0614 32.6656 38.0128C32.4967 37.9763 32.2125 37.9494 32.105 37.8016C32.0999 37.7959 32.0962 37.7892 32.094 37.7819C32.0918 37.7747 32.0912 37.767 32.0923 37.7595C32.0934 37.752 32.0962 37.7448 32.1003 37.7385C32.1045 37.7322 32.11 37.7268 32.1165 37.7228Z" fill="#263238"/>
<path d="M25.6621 68.8519C27.129 66.6298 28.569 64.3898 29.9821 62.1319C31.3953 59.8739 32.7892 57.5987 34.1639 55.3063C34.4922 54.7591 34.8705 54.2138 35.0817 53.6071C35.3121 52.9485 35.1815 52.3091 34.9741 51.664C34.5826 50.4871 34.1249 49.3333 33.6033 48.208C33.0887 47.0733 32.5338 45.9578 31.9885 44.8384C31.4433 43.7191 30.873 42.6131 30.4525 41.4458C30.0685 40.3303 29.913 39.1744 30.2125 38.0186C30.5121 36.8627 31.1572 35.8413 31.8311 34.8794C32.0077 34.6259 32.1901 34.3744 32.3687 34.1114C32.3821 34.0922 32.4109 34.1114 32.3975 34.1344C31.6545 35.1367 30.9306 36.1984 30.4948 37.3754C30.272 37.9555 30.1474 38.5687 30.1261 39.1898C30.1225 39.8202 30.2204 40.4471 30.4161 41.0464C30.777 42.2138 31.3473 43.3178 31.8791 44.416C32.4109 45.5143 32.9793 46.6509 33.5034 47.7818C34.0442 48.9199 34.5248 50.0857 34.9434 51.2743C35.122 51.8023 35.3274 52.3552 35.3121 52.9216C35.2986 53.5418 35.0029 54.1005 34.6957 54.6227C33.3517 56.8979 31.9751 59.1463 30.5735 61.3811C29.1719 63.616 27.73 65.8509 26.2708 68.0627L25.7178 68.8979C25.689 68.9325 25.6391 68.8922 25.6621 68.8519Z" fill="#263238"/>
<path d="M41.7617 26.8938C42.593 28.7178 46.7921 31.2311 48.7582 31.5018C50.1713 31.6938 54.4682 31.7629 55.9409 31.5383C57.6689 31.2733 56.3479 26.6173 55.3284 26.7383C52.5252 27.0647 50.1444 27.4295 49.3956 27.4295C48.4817 27.4295 43.5377 25.8436 42.9425 25.6189C41.4833 25.0756 41.2913 25.8589 41.7617 26.8938Z" fill="#FFC4C0"/>
<path d="M41.7895 27.3802C42.8417 28.9374 46.338 31.4833 46.338 31.4833L46.8238 30.4081L48.4308 26.8522C48.4308 26.8522 45.2187 25.8442 43.1047 25.3834C42.856 25.3268 42.6029 25.2909 42.3483 25.2759C40.9985 25.203 40.8814 26.0362 41.7895 27.3802Z" fill="#F6B205"/>
<path d="M41.7895 27.3798C42.8417 28.9369 46.338 31.4828 46.338 31.4828L46.8238 30.4076C45.5201 28.8927 43.506 26.5983 42.3483 25.2793C40.9985 25.2025 40.8814 26.0358 41.7895 27.3798Z" fill="#263238"/>
<path d="M45.7076 30.7609C45.9745 30.1062 47.1611 27.4701 47.4568 26.9209C47.476 26.8825 47.5067 26.8864 47.4894 26.9209C46.9747 28.2319 46.3889 29.5138 45.7345 30.7609C45.7268 30.784 45.6961 30.7763 45.7076 30.7609Z" fill="#263238"/>
<path d="M54.8145 26.7871C56.5194 26.5644 58.6295 26.1823 60.417 26.9407C60.6178 27.0194 60.7862 27.1635 60.8951 27.3496C61.7015 27.676 61.7898 28.1541 61.7898 28.1541C62.4484 28.6879 62.4714 29.1909 62.4714 29.1909C62.4714 29.1909 63.4161 29.5749 63.2721 30.1932C63.1146 30.8767 61.8205 30.1932 60.8797 30.2488C58.7197 30.3832 55.6957 31.1762 55.0717 31.276L54.8145 26.7871Z" fill="#FFC4C0"/>
<path d="M58.5172 28.7986C59.1488 28.7554 59.7826 28.7554 60.4141 28.7986C61.1019 28.8849 61.7823 29.0229 62.4493 29.2114C62.4537 29.213 62.4584 29.2127 62.4626 29.2107C62.4667 29.2087 62.4699 29.2052 62.4714 29.2009C62.4729 29.1965 62.4727 29.1918 62.4707 29.1876C62.4687 29.1835 62.4652 29.1803 62.4609 29.1788C61.2077 28.6871 59.8435 28.549 58.5172 28.7794C58.4865 28.7756 58.4865 28.8006 58.5172 28.7986Z" fill="#263238"/>
<path d="M58.1157 26.8039C59.1698 26.8577 59.8284 27.0266 60.8882 27.3453V27.3338C59.7209 26.8461 59.2428 26.8001 58.11 26.7578C58.0735 26.7732 58.0754 26.8039 58.1157 26.8039Z" fill="#263238"/>
<path d="M58.2883 30.5752C58.0137 30.7038 58.0809 30.8478 58.6051 30.9688C59.1292 31.0898 61.3084 31.1262 61.2316 31.8866C61.1548 32.6469 58.0809 32.5509 57.2227 32.2821C56.3644 32.0133 55.0723 31.276 55.0723 31.276C55.6809 31.1742 57.1094 30.7883 58.2883 30.5752Z" fill="#FFC4C0"/>
<path d="M44.0457 29.8012C44.0323 30.1295 44.0016 30.4636 43.9555 30.7957C43.9555 30.7823 43.9555 30.7708 43.9689 30.7592C44.0323 30.5864 44.0956 30.4098 44.1724 30.2428C44.1724 30.2428 44.1916 30.2428 44.1897 30.2428C44.1528 30.4258 44.0975 30.6046 44.0246 30.7765C43.99 30.8591 43.9574 30.9397 43.9209 31.0204C43.8979 31.1682 43.871 31.3141 43.8422 31.46C43.7846 31.7346 43.5254 32.902 43.4582 33.0997C43.4467 33.14 43.3968 33.1304 43.4006 33.0844C43.414 32.8693 43.631 31.654 43.6752 31.3775C43.7609 30.8436 43.8757 30.3149 44.0188 29.7935C44.0284 29.7839 44.0476 29.7916 44.0457 29.8012Z" fill="#263238"/>
<path d="M42.0479 38.5314C41.5352 38.7944 40.8748 39.2034 37.8988 38.6178C37.7068 38.5794 37.5263 38.5333 37.3381 38.4776C34.5484 37.6405 31.1941 34.3592 31.0117 34.1269C31.0117 34.1269 35.445 26.9404 41.1148 24.6805C41.8156 24.4021 42.9752 24.9397 43.6108 25.6098C43.8392 25.8498 44.3365 27.6143 44.1464 29.0428C43.9564 30.4712 42.5586 38.2684 42.0479 38.5314Z" fill="#F6B205"/>
<path d="M41.649 28.9775C41.6704 29.2812 41.6279 29.586 41.5242 29.8723C41.4999 29.5685 41.5425 29.2631 41.649 28.9775Z" fill="white"/>
<path d="M39.7159 33.8711C39.7281 34.0222 39.723 34.1743 39.7006 34.3242C39.6821 34.4753 39.6453 34.6236 39.5911 34.7658C39.5779 34.6141 39.5831 34.4613 39.6065 34.3108C39.6261 34.1605 39.6628 34.013 39.7159 33.8711Z" fill="white"/>
<path d="M36.4302 30.1719C36.4518 30.4762 36.4093 30.7817 36.3054 31.0685C36.2813 30.7641 36.3239 30.4581 36.4302 30.1719Z" fill="white"/>
<path d="M42.9132 33.6221C42.9255 33.7738 42.9203 33.9265 42.8978 34.0771C42.8793 34.2282 42.8426 34.3765 42.7884 34.5187C42.7752 34.367 42.7803 34.2142 42.8038 34.0637C42.8232 33.9128 42.8599 33.7646 42.9132 33.6221Z" fill="white"/>
<path d="M38.6953 29.5384C38.8464 29.5255 38.9984 29.53 39.1484 29.5518C39.2996 29.571 39.4479 29.6084 39.59 29.6632C39.2863 29.685 38.9815 29.6425 38.6953 29.5384Z" fill="white"/>
<path d="M34.9668 33.0728C35.2705 33.0514 35.5753 33.0939 35.8615 33.1976C35.5577 33.2219 35.2523 33.1793 34.9668 33.0728Z" fill="white"/>
<path d="M39.3594 36.8991C39.6631 36.8773 39.968 36.9198 40.2541 37.0239C39.9503 37.0479 39.645 37.0053 39.3594 36.8991Z" fill="white"/>
<path d="M33.8164 35.5093C34.1201 35.4879 34.4249 35.5304 34.7111 35.6341C34.4074 35.6581 34.102 35.6155 33.8164 35.5093Z" fill="white"/>
<path d="M41.6191 25.5366C41.9228 25.5152 42.2276 25.5577 42.5139 25.6614C42.2102 25.6829 41.9054 25.6403 41.6191 25.5366Z" fill="white"/>
<path d="M40.5346 26.7617C40.4375 26.8784 40.3266 26.9828 40.2043 27.0728C40.0853 27.1648 39.9566 27.2433 39.8203 27.307C39.9167 27.1911 40.0263 27.0867 40.1467 26.996C40.2668 26.9036 40.3969 26.825 40.5346 26.7617Z" fill="white"/>
<path d="M34.6224 30.2432C34.5242 30.3588 34.4127 30.4626 34.2902 30.5523C34.1725 30.646 34.0435 30.7247 33.9062 30.7865C34.005 30.6713 34.1164 30.5677 34.2384 30.4774C34.3565 30.3841 34.4854 30.3054 34.6224 30.2432Z" fill="white"/>
<path d="M42.0052 31.8135C41.907 31.9297 41.7955 32.0341 41.6731 32.1245C41.555 32.2179 41.4261 32.2965 41.2891 32.3588C41.3873 32.2425 41.4988 32.1381 41.6212 32.0477C41.7399 31.9553 41.8687 31.8767 42.0052 31.8135Z" fill="white"/>
<path d="M37.2259 34.8242C37.1277 34.9405 37.0162 35.0449 36.8938 35.1353C36.7755 35.2283 36.6466 35.307 36.5098 35.3695C36.608 35.2532 36.7195 35.1488 36.8419 35.0585C36.9606 34.9661 37.0895 34.8875 37.2259 34.8242Z" fill="white"/>
<path d="M43.8373 27.7002C43.739 27.8165 43.6276 27.9209 43.5051 28.0112C43.3861 28.1032 43.2573 28.1818 43.1211 28.2455C43.2193 28.1292 43.3308 28.0248 43.4533 27.9344C43.5715 27.8414 43.7004 27.7627 43.8373 27.7002Z" fill="white"/>
<path d="M43.7367 31.1888C43.6204 31.0906 43.516 30.9791 43.4256 30.8567C43.3322 30.7387 43.2535 30.6097 43.1914 30.4727C43.3081 30.5697 43.4125 30.6806 43.5024 30.8029C43.5942 30.9227 43.6727 31.0521 43.7367 31.1888Z" fill="white"/>
<path d="M33.0824 33.5931C32.9661 33.4949 32.8617 33.3834 32.7713 33.261C32.6789 33.1423 32.6004 33.0134 32.5371 32.877C32.6534 32.9752 32.7578 33.0866 32.8481 33.2091C32.9412 33.3273 33.0198 33.4563 33.0824 33.5931Z" fill="white"/>
<path d="M42.4418 36.4515C42.3251 36.3545 42.2206 36.2436 42.1307 36.1213C42.0387 36.0023 41.9602 35.8736 41.8965 35.7373C42.0128 35.8355 42.1171 35.947 42.2075 36.0695C42.3002 36.1873 42.3788 36.3155 42.4418 36.4515Z" fill="white"/>
<path d="M37.7504 28.3012C37.6341 28.2036 37.5297 28.0928 37.4393 27.9709C37.3477 27.8517 37.2692 27.7229 37.2051 27.5869C37.3218 27.684 37.4262 27.7949 37.5161 27.9172C37.6077 28.0364 37.6863 28.1651 37.7504 28.3012Z" fill="white"/>
<path d="M37.8343 38.0804C37.7181 37.9822 37.6137 37.8707 37.5233 37.7483C37.4312 37.6294 37.3526 37.5006 37.2891 37.3643C37.4057 37.4613 37.5102 37.5722 37.6001 37.6945C37.6925 37.8139 37.7711 37.9434 37.8343 38.0804Z" fill="white"/>
<path d="M38.6313 32.3128C38.5161 32.2141 38.4124 32.1026 38.3221 31.9807C38.2284 31.8629 38.1497 31.7339 38.0879 31.5967C38.2036 31.6949 38.3073 31.8064 38.397 31.9288C38.4903 32.0469 38.569 32.1758 38.6313 32.3128Z" fill="white"/>
<path d="M42.572 27.5244C41.8481 27.39 41.1684 25.8943 41.082 24.8882C41.082 24.8191 41.42 24.2719 41.8059 23.5865C42.0401 23.1698 42.2878 22.6994 42.4856 22.254C42.5259 22.1637 42.762 22.469 42.762 22.469L43.2766 22.853L44.9758 24.1567C44.5712 24.6422 44.2275 25.1755 43.9524 25.7445C43.9253 25.8062 43.9047 25.8706 43.891 25.9365C43.8902 25.9474 43.8902 25.9583 43.891 25.9692C43.7854 26.3493 43.2689 27.653 42.572 27.5244Z" fill="#FFC4C0"/>
<path d="M43.8913 25.9455C43.8905 25.9563 43.8905 25.9672 43.8913 25.9781C43.7904 25.9485 43.6921 25.9106 43.5975 25.8648C41.737 24.9931 42.5569 22.501 42.5569 22.501L43.2865 22.8619L44.9857 24.1656C44.581 24.6512 44.2374 25.1844 43.9623 25.7535C43.9319 25.8147 43.908 25.8791 43.8913 25.9455Z" fill="#263238"/>
<path d="M46.9277 18.8516C46.9277 18.8516 47.7783 19.3911 47.7821 20.3511C47.786 21.3111 47.3981 22.25 47.3175 22.2845C47.2369 22.3191 46.9277 18.8516 46.9277 18.8516Z" fill="#263238"/>
<path d="M42.708 19.3508C42.1973 20.3588 42.2241 23.5364 42.8616 24.3544C43.787 25.5409 45.5688 25.9499 46.6459 24.7768C47.6885 23.6401 47.5809 19.5006 46.8379 18.7288C45.7569 17.5883 43.4645 17.859 42.708 19.3508Z" fill="#FFC4C0"/>
<path d="M45.42 21.8945C45.42 21.8945 45.4027 21.9061 45.4047 21.9137C45.4162 22.1307 45.3931 22.3803 45.1992 22.4571C45.1992 22.4571 45.1992 22.4705 45.1992 22.4686C45.4392 22.4302 45.4661 22.0981 45.42 21.8945Z" fill="#263238"/>
<path d="M45.2225 21.6742C44.873 21.655 44.8615 22.3539 45.186 22.3712C45.5105 22.3885 45.5143 21.6896 45.2225 21.6742Z" fill="#263238"/>
<path d="M46.6032 21.8867C46.6032 21.8867 46.6205 21.8867 46.6205 21.9059C46.609 22.1229 46.6339 22.3725 46.8298 22.4474C46.8298 22.4474 46.8298 22.4608 46.8298 22.4589C46.5878 22.4224 46.559 22.0902 46.6032 21.8867Z" fill="#263238"/>
<path d="M46.8015 21.6645C47.149 21.6434 47.1663 22.3423 46.8438 22.3615C46.5212 22.3807 46.5097 21.6818 46.8015 21.6645Z" fill="#263238"/>
<path d="M45.0029 21.1418C45.0946 21.1157 45.185 21.0849 45.2736 21.0497C45.3744 21.0314 45.4663 20.9801 45.5347 20.9037C45.5513 20.8758 45.5582 20.8432 45.5544 20.8109C45.5506 20.7786 45.5362 20.7485 45.5136 20.7252C45.4616 20.6857 45.4001 20.6608 45.3353 20.653C45.2705 20.6452 45.2048 20.6549 45.1449 20.681C45.0154 20.7157 44.9032 20.7971 44.8301 20.9095C44.8154 20.9362 44.8088 20.9666 44.8109 20.997C44.8131 21.0274 44.8239 21.0566 44.842 21.081C44.8602 21.1055 44.885 21.1242 44.9135 21.135C44.942 21.1457 44.973 21.1481 45.0029 21.1418Z" fill="#263238"/>
<path d="M47.0397 21.4515C46.9463 21.4306 46.854 21.405 46.7632 21.3747C46.662 21.3613 46.5682 21.3147 46.4963 21.2422C46.4778 21.2155 46.4689 21.1833 46.471 21.1509C46.4731 21.1185 46.4861 21.0877 46.5079 21.0636C46.5574 21.0213 46.6174 20.9931 46.6816 20.9819C46.7458 20.9708 46.8118 20.9771 46.8727 21.0003C47.004 21.0275 47.1204 21.1028 47.1991 21.2115C47.2155 21.2372 47.2241 21.2671 47.2239 21.2976C47.2236 21.3282 47.2145 21.358 47.1976 21.3834C47.1807 21.4088 47.1568 21.4288 47.1288 21.4409C47.1007 21.453 47.0698 21.4566 47.0397 21.4515Z" fill="#263238"/>
<path d="M44.9282 23.9472C44.9801 23.999 45.03 24.0681 45.1087 24.0758C45.1894 24.0758 45.2692 24.0588 45.343 24.0259C45.343 24.0259 45.3564 24.0259 45.343 24.0374C45.3115 24.0796 45.2692 24.1124 45.2204 24.1324C45.1717 24.1524 45.1185 24.1587 45.0665 24.1507C45.0226 24.1387 44.9832 24.1142 44.9532 24.08C44.9232 24.0459 44.9038 24.0037 44.8975 23.9587C44.896 23.9546 44.8962 23.9501 44.898 23.9461C44.8998 23.9422 44.9031 23.9391 44.9071 23.9376C44.9112 23.936 44.9157 23.9362 44.9197 23.938C44.9236 23.9398 44.9267 23.9431 44.9282 23.9472Z" fill="#263238"/>
<path d="M46.1843 23.022C46.1843 23.022 46.1939 23.3446 46.1843 23.4963C45.8892 23.465 45.5913 23.4753 45.2991 23.527C45.23 23.5424 45.2377 23.4867 45.3164 23.4502C45.5517 23.3426 45.8138 23.3079 46.0691 23.3504C46.0844 23.31 46.0441 22.8512 46.0691 22.8531C46.1852 22.8759 46.2976 22.9146 46.4031 22.9683C46.4031 22.2924 46.2956 21.6243 46.3052 20.9484C46.3052 20.9254 46.3417 20.9216 46.3455 20.9484C46.482 21.6634 46.5463 22.3902 46.5375 23.118C46.5395 23.2006 46.2419 23.0528 46.1843 23.022Z" fill="#263238"/>
<path d="M45.7511 23.3808C45.6745 23.5821 45.5325 23.7518 45.3479 23.8627C45.0579 23.9798 44.9639 23.7168 45.2557 23.4787C45.4087 23.4013 45.5801 23.3674 45.7511 23.3808Z" fill="#263238"/>
<path d="M45.4505 23.8031C45.4198 23.8281 45.3855 23.8481 45.3487 23.8626C45.0818 23.9702 44.9762 23.757 45.1913 23.542C45.3372 23.5535 45.5042 23.6073 45.4505 23.8031Z" fill="#FF99BA"/>
<path d="M42.5618 22.0673C42.9132 22.1749 43.3164 21.1189 43.4316 20.7233C43.5314 20.3662 43.6466 19.2315 43.6639 19.1528C43.6812 19.0741 45.1999 20.1569 46.0793 19.8997C46.9586 19.6424 47.5557 18.8456 47.5692 18.475C47.5826 18.1045 46.4825 17.1637 45.5321 17.1157C44.5817 17.0677 43.2933 18.2677 43.2933 18.2677C43.449 18.0911 43.5902 17.9023 43.7157 17.7032C43.7004 17.6609 43.086 17.9067 42.9727 18.3445C42.9727 18.3445 43.0956 17.7934 43.0495 17.7838C43.0034 17.7742 42.5253 18.2446 42.6329 18.6017C42.6329 18.6017 42.0799 19.0798 42.03 19.604C41.9801 20.1281 42.149 21.9406 42.5618 22.0673Z" fill="#263238"/>
<path d="M46.7099 19.6996C46.4484 19.8414 46.1667 19.9424 45.8747 19.9991C45.5469 20.0284 45.217 19.9756 44.9147 19.8455C44.6101 19.7279 44.3273 19.5605 44.0776 19.3502C43.8568 19.1697 43.659 18.9489 43.4228 18.7876C43.3633 18.7454 43.2961 18.8318 43.3326 18.8855C43.7266 19.4421 44.2895 19.8568 44.9377 20.0683C45.2388 20.1664 45.5602 20.1848 45.8705 20.1215C46.1808 20.0582 46.4694 19.9155 46.708 19.7073C46.708 19.7073 46.7137 19.6996 46.7099 19.6996Z" fill="#263238"/>
<path d="M42.93 21.9732C42.93 21.9732 42.3847 20.8673 41.8932 21.0459C41.4017 21.2244 41.7012 22.7547 42.2062 23.035C42.268 23.075 42.3373 23.1021 42.4099 23.1147C42.4825 23.1273 42.5569 23.1251 42.6286 23.1083C42.7003 23.0914 42.7679 23.0602 42.8272 23.0166C42.8866 22.973 42.9366 22.9179 42.9742 22.8545L42.93 21.9732Z" fill="#FFC4C0"/>
<path d="M41.9895 21.4814C41.9895 21.4814 41.978 21.4814 41.9895 21.4968C42.3389 21.7042 42.481 22.0728 42.5655 22.4568C42.5496 22.4162 42.525 22.3794 42.4936 22.3492C42.4621 22.319 42.4244 22.2959 42.3831 22.2817C42.3419 22.2675 42.298 22.2624 42.2546 22.2667C42.2111 22.2711 42.1692 22.2849 42.1316 22.307C42.1201 22.307 42.1316 22.3282 42.1316 22.3282C42.2003 22.3175 42.2706 22.3284 42.3328 22.3593C42.395 22.3903 42.4462 22.4398 42.4791 22.501C42.5341 22.6035 42.5778 22.7116 42.6097 22.8235C42.6212 22.86 42.6845 22.8504 42.6788 22.8101C42.7613 22.332 42.4925 21.6082 41.9895 21.4814Z" fill="#263238"/>
<path d="M39.3288 26.912C38.9448 29.0873 41.3025 36.416 42.8136 37.7849C45.0619 39.8201 49.2187 41.1584 50.7259 41.5942C51.3825 41.7862 53.1989 37.1648 52.5345 36.8595C51.1118 36.2124 46.692 34.83 46.2715 34.4844C45.851 34.1388 43.3166 30.4774 42.1877 28.3692C40.6766 25.5315 39.5189 25.8118 39.3288 26.912Z" fill="#FFC4C0"/>
<path d="M51.4148 36.4521C51.4148 36.4521 53.377 36.9533 54.6423 37.3392C55.3488 37.5561 56.5277 38.0342 56.9751 38.4297C57.6432 39.023 60.0586 41.9261 59.3674 42.527C58.7415 43.0723 56.9828 40.3133 56.9828 40.3133C56.9828 40.3133 59.0026 42.9398 58.1348 43.4563C57.2669 43.9728 55.6791 40.5917 55.6791 40.5917C55.6791 40.5917 57.6931 43.3373 56.7082 43.727C55.9632 44.0208 54.3658 41.039 54.3658 41.039C54.3658 41.039 56.0823 43.4102 55.3258 43.7462C54.4925 44.1187 52.8471 41.4576 52.8471 41.4576C50.7888 41.9894 49.5831 41.4 48.7901 40.8816C48.6039 40.7549 51.4148 36.4521 51.4148 36.4521Z" fill="#FFC4C0"/>
<path d="M56.3432 39.3587C56.5928 39.6582 56.8462 39.9615 57.067 40.2822C57.2878 40.6028 57.4971 40.9331 57.6872 41.2729C57.9447 41.7125 58.1509 42.1802 58.3016 42.6668C57.9713 41.822 57.1976 40.6604 56.9768 40.3398C56.756 40.0191 56.5505 39.687 56.3316 39.3663C56.3259 39.3586 56.3374 39.351 56.3432 39.3587Z" fill="#263238"/>
<path d="M55.1696 40.1362C55.5958 40.4741 56.4886 41.7298 56.8323 42.5727C56.8477 42.6072 56.8323 42.6053 56.8073 42.5727C56.5385 42.156 55.448 40.5432 55.16 40.1419C55.1542 40.1362 55.1638 40.1304 55.1696 40.1362Z" fill="#263238"/>
<path d="M54.0426 40.6283C54.5722 41.1838 54.9906 41.8355 55.2752 42.5483C55.2886 42.5828 55.2618 42.5771 55.2406 42.5483C54.8432 41.9012 54.536 41.3963 54.0214 40.6455C54.0138 40.6283 54.031 40.611 54.0426 40.6283Z" fill="#263238"/>
<path d="M41.4726 27.0712C39.7196 24.5924 38.6713 25.5102 39.0227 28.202C39.3529 30.7192 40.2342 33.7182 40.2342 33.7182L44.6502 31.5755C44.6502 31.5755 42.5881 28.659 41.4726 27.0712Z" fill="#F6B205"/>
<path d="M42.5379 28.0459C42.5961 28.1859 42.6379 28.3321 42.6627 28.4817C42.6896 28.6318 42.6993 28.7845 42.6915 28.9368C42.6339 28.796 42.5926 28.6492 42.5686 28.499C42.54 28.3498 42.5297 28.1976 42.5379 28.0459Z" fill="white"/>
<path d="M39.9199 29.5531C40.2017 29.4385 40.505 29.3861 40.8089 29.3995C40.6688 29.4571 40.5226 29.4983 40.373 29.5224C40.2238 29.5509 40.0716 29.5612 39.9199 29.5531Z" fill="white"/>
<path d="M40.034 25.6982C39.9151 25.9788 39.7377 26.2308 39.5137 26.4374C39.6326 26.1568 39.81 25.9048 40.034 25.6982Z" fill="white"/>
<path d="M43.7762 30.7109C43.7179 30.8514 43.6438 30.9847 43.5554 31.1084C43.4693 31.2336 43.3687 31.3483 43.2559 31.4501C43.3748 31.1695 43.5521 30.9175 43.7762 30.7109Z" fill="white"/>
<path d="M40.704 32.2147C40.5633 32.1571 40.4299 32.0829 40.3066 31.9939C40.1813 31.9078 40.0666 31.8073 39.9648 31.6943C40.2454 31.8132 40.4974 31.9906 40.704 32.2147Z" fill="white"/>
<path d="M42.0486 27.8174C42.2848 28.1419 42.5286 28.4587 42.7705 28.7774C42.7091 28.6161 42.6553 28.4529 42.6092 28.2878H42.6208C42.6688 28.4145 42.7244 28.5393 42.7705 28.6718L42.8396 28.8638C42.8456 28.8769 42.8507 28.8904 42.855 28.9041C43.047 29.1518 43.239 29.3995 43.4156 29.6529C43.6326 29.9563 43.8419 30.2635 44.0531 30.5707C44.2643 30.8779 44.4774 31.2599 44.7059 31.5691C44.727 31.5959 44.3219 31.7611 44.2777 31.7822C44.2336 31.8033 44.2105 31.7668 44.2528 31.7534C44.295 31.7399 44.6176 31.5422 44.6214 31.5383C44.4102 31.2273 44.1664 30.9412 43.9456 30.6398C43.7248 30.3383 43.5059 30.0369 43.2928 29.7316C42.8608 29.1095 42.4652 28.4644 42.0352 27.8404L42.0486 27.8174Z" fill="#263238"/>
<path d="M39.1264 29.9839C39.1936 30.1144 39.2665 30.2431 39.3184 30.3775L39.3914 30.5445C39.2896 30.0664 39.1994 29.5845 39.0938 29.1064C39.2973 29.8744 39.5027 30.6597 39.6909 31.4392C39.8694 32.1842 40.0864 32.9368 40.1901 33.6972C40.324 33.6384 40.4627 33.5915 40.6048 33.557C40.4622 33.6493 40.3087 33.7234 40.1478 33.7778C39.9164 33.0046 39.7241 32.2203 39.5718 31.4277C39.5238 31.2127 39.4797 30.9976 39.4336 30.7826C39.3837 30.652 39.3241 30.5272 39.2646 30.3986C39.2051 30.27 39.1514 30.126 39.0976 29.9896C39.1091 29.982 39.1225 29.9743 39.1264 29.9839Z" fill="#263238"/>
<path d="M40.2986 32.9767C40.913 32.6311 43.4801 31.3025 44.0542 31.0567C44.0945 31.0395 44.1156 31.0567 44.0753 31.0836C42.8568 31.7917 41.6005 32.4326 40.3121 33.0036C40.2967 33.0075 40.2814 32.9863 40.2986 32.9767Z" fill="#263238"/>
<path d="M110.655 83.4536H52.1562L60.6138 35.4824H119.112L110.655 83.4536Z" fill="#F6B205"/>
<path d="M80.635 30.5137H61.4907L60.6133 35.4826H81.1016L80.635 30.5137Z" fill="#F6B205"/>
<g opacity="0.1">
<path d="M110.655 83.4536H52.1562L60.6138 35.4824H119.112L110.655 83.4536Z" fill="black"/>
<path d="M80.635 30.5137H61.4907L60.6133 35.4826H81.1016L80.635 30.5137Z" fill="black"/>
</g>
<path d="M59.4241 32.5415C59.2961 31.9921 59.2961 31.4205 59.4241 30.8711C59.5522 31.4205 59.5522 31.9921 59.4241 32.5415Z" fill="#263238"/>
<path d="M57.7238 33.0327C57.5283 32.83 57.3599 32.6028 57.2227 32.3569C57.0788 32.116 56.9659 31.858 56.8867 31.5889C57.0828 31.7904 57.2513 32.017 57.3878 32.2628C57.5314 32.5045 57.6443 32.7631 57.7238 33.0327Z" fill="#263238"/>
<path d="M56.4946 34.3098C55.9551 34.1458 55.4604 33.86 55.0488 33.4746C55.318 33.5528 55.5761 33.6651 55.8168 33.8087C56.0628 33.9468 56.2905 34.1151 56.4946 34.3098Z" fill="#263238"/>
<path d="M56.0649 36.0296C55.5155 36.1576 54.944 36.1576 54.3945 36.0296C54.944 35.9016 55.5155 35.9016 56.0649 36.0296Z" fill="#263238"/>
<path d="M56.563 37.7305C56.3594 37.9249 56.1324 38.0933 55.8871 38.2316C55.6464 38.3752 55.3883 38.4874 55.1191 38.5657C55.3219 38.3702 55.549 38.2017 55.795 38.0645C56.0354 37.9203 56.2936 37.808 56.563 37.7305Z" fill="#263238"/>
<path d="M57.8391 38.958C57.6757 39.4983 57.3899 39.9937 57.0039 40.4057C57.0821 40.1362 57.195 39.878 57.3399 39.6377C57.4768 39.3908 57.6445 39.1625 57.8391 38.958Z" fill="#263238"/>
<path d="M59.5594 39.3818C59.6264 39.6551 59.6586 39.9357 59.6554 40.217C59.6595 40.4984 59.6273 40.7791 59.5594 41.0522C59.4906 40.7793 59.4583 40.4985 59.4634 40.217C59.4602 39.9357 59.4925 39.6551 59.5594 39.3818Z" fill="#263238"/>
<path d="M61.2598 38.9003C61.4553 39.103 61.6237 39.3302 61.7609 39.5762C61.9052 39.8166 62.0175 40.0747 62.095 40.3442C61.709 39.9322 61.4232 39.4368 61.2598 38.8965V38.9003Z" fill="#263238"/>
<path d="M62.4863 37.6143C62.7558 37.6918 63.0139 37.8041 63.2543 37.9483C63.5003 38.0855 63.7274 38.254 63.9302 38.4495C63.6607 38.3719 63.4026 38.2596 63.1622 38.1154C62.9162 37.9782 62.689 37.8098 62.4863 37.6143Z" fill="#263238"/>
<path d="M62.9121 35.8938C63.4622 35.7659 64.0343 35.7659 64.5844 35.8938C64.0343 36.0218 63.4622 36.0218 62.9121 35.8938Z" fill="#263238"/>
<path d="M62.4199 34.1926C62.6231 33.9983 62.8502 33.8306 63.0957 33.6934C63.3356 33.5478 63.5939 33.4348 63.8637 33.3574C63.4517 33.7434 62.9563 34.0292 62.416 34.1926H62.4199Z" fill="#263238"/>
<path d="M61.1426 32.9653C61.2216 32.6964 61.3338 32.4385 61.4767 32.1973C61.6138 31.9514 61.7823 31.7242 61.9778 31.5215C61.9003 31.7909 61.788 32.0491 61.6437 32.2895C61.5065 32.5354 61.3381 32.7626 61.1426 32.9653Z" fill="#263238"/>
<path d="M110.568 83.4534H51.9443L43.6191 37.2236H102.244L110.568 83.4534Z" fill="#F6B205"/>
<path d="M63.9345 65.4843C65.2802 65.4843 66.371 64.3934 66.371 63.0478C66.371 61.7022 65.2802 60.6113 63.9345 60.6113C62.5889 60.6113 61.498 61.7022 61.498 63.0478C61.498 64.3934 62.5889 65.4843 63.9345 65.4843Z" fill="#263238"/>
<path d="M83.1962 65.4843C84.5419 65.4843 85.6327 64.3934 85.6327 63.0478C85.6327 61.7022 84.5419 60.6113 83.1962 60.6113C81.8506 60.6113 80.7598 61.7022 80.7598 63.0478C80.7598 64.3934 81.8506 65.4843 83.1962 65.4843Z" fill="#263238"/>
<path d="M77.0646 65.8748L76.9302 65.6194C76.9187 65.5964 75.6592 63.2694 73.1267 63.2694C70.8227 63.2694 70.2467 65.4601 70.2314 65.5542L70.1622 65.8326L69.6035 65.6982L69.6707 65.4178C69.6707 65.391 70.3581 62.6934 73.1267 62.6934C76.0067 62.6934 77.3834 65.2431 77.441 65.3526L77.5754 65.606L77.0646 65.8748Z" fill="#263238"/>
<path d="M106.697 62.8614L106.656 62.6694C106.781 62.6425 106.904 62.6137 107.027 62.5811L107.075 62.7731C106.944 62.8057 106.823 62.8345 106.697 62.8614Z" fill="#263238"/>
<path d="M107.819 62.5527L107.757 62.3723C107.997 62.2897 108.237 62.1995 108.47 62.1015L108.545 62.2782C108.308 62.378 108.065 62.4702 107.819 62.5527ZM109.249 61.9403L109.163 61.7713C109.387 61.6542 109.612 61.5275 109.825 61.3873L109.925 61.5505C109.706 61.7022 109.478 61.8308 109.249 61.9403ZM110.57 61.1281L110.457 60.9726C110.664 60.8209 110.864 60.6615 111.052 60.4983L111.179 60.6423C110.977 60.8171 110.785 60.9803 110.568 61.1358L110.57 61.1281ZM111.741 60.1067L111.601 59.9742C111.778 59.7822 111.945 59.5902 112.098 59.3982L112.25 59.5153C112.091 59.7265 111.92 59.9243 111.745 60.1143L111.741 60.1067ZM112.692 58.8779L112.529 58.7761C112.661 58.5616 112.779 58.3384 112.882 58.1079L113.058 58.1867C112.95 58.4269 112.827 58.6603 112.69 58.8855L112.692 58.8779ZM113.327 57.4532L113.135 57.3995C113.205 57.1586 113.257 56.9128 113.291 56.6641L113.483 56.6891C113.451 56.9501 113.398 57.2082 113.325 57.4609L113.327 57.4532ZM113.54 55.9172H113.348V55.8615C113.348 55.6292 113.335 55.3931 113.312 55.1607L113.504 55.1415C113.529 55.3807 113.542 55.621 113.542 55.8615L113.54 55.9172ZM113.195 54.4139C113.143 54.1663 113.079 53.9215 113.003 53.6804L113.195 53.6228C113.273 53.8724 113.341 54.1259 113.387 54.3735L113.195 54.4139ZM112.74 52.9681C112.648 52.7415 112.548 52.5092 112.425 52.275L112.598 52.1886C112.715 52.4267 112.822 52.6647 112.916 52.8951L112.74 52.9681ZM112.068 51.5991C111.949 51.3899 111.818 51.1691 111.684 50.9425L111.847 50.8407C111.987 51.0692 112.12 51.2919 112.231 51.5051L112.068 51.5991ZM111.265 50.2955C111.125 50.0843 110.983 49.8711 110.837 49.658L110.996 49.5505C111.142 49.7636 111.284 49.9767 111.425 50.1918L111.265 50.2955ZM110.401 49.0244C110.257 48.8132 110.111 48.6001 109.969 48.3889L110.129 48.2814C110.271 48.4926 110.415 48.7057 110.559 48.915L110.401 49.0244ZM109.543 47.7457C109.403 47.5307 109.266 47.3118 109.132 47.0929L109.295 46.9931C109.43 47.2119 109.566 47.427 109.704 47.642L109.543 47.7457ZM108.742 46.4267C108.612 46.1943 108.491 45.9639 108.381 45.7431L108.554 45.6567C108.662 45.8756 108.783 46.1022 108.909 46.3326L108.742 46.4267ZM108.061 45.0443C107.959 44.8043 107.869 44.5604 107.784 44.3223L107.976 44.2609C108.057 44.4932 108.147 44.7332 108.247 44.9694L108.061 45.0443ZM107.561 43.5793C107.498 43.3297 107.442 43.0743 107.4 42.8113L107.592 42.7806C107.634 43.0263 107.686 43.2759 107.75 43.5217L107.561 43.5793ZM107.304 42.0433C107.285 41.8071 107.275 41.5691 107.275 41.331V41.2676H107.467V41.3291C107.467 41.5614 107.467 41.7956 107.496 42.026L107.304 42.0433ZM107.496 40.5073L107.304 40.4881C107.304 40.4363 107.314 40.3825 107.32 40.3268C107.343 40.1214 107.371 39.9159 107.406 39.7201L107.598 39.7527C107.565 39.9447 107.537 40.1463 107.513 40.3479C107.521 40.4075 107.521 40.4593 107.506 40.5131L107.496 40.5073ZM107.763 39.0135L107.571 38.9617C107.642 38.7083 107.725 38.4606 107.817 38.2244L107.995 38.2935C107.908 38.5313 107.834 38.7735 107.773 39.0193L107.763 39.0135ZM117.33 37.8942C117.223 37.8942 117.112 37.8788 117.002 37.8635C116.852 37.8423 116.703 37.8174 116.555 37.7886L116.593 37.5966C116.735 37.6235 116.883 37.6484 117.029 37.6695C117.133 37.683 117.238 37.6926 117.34 37.6983L117.33 37.8942ZM118.12 37.8347L118.079 37.6427C118.32 37.5929 118.551 37.5034 118.763 37.3777L118.863 37.5409C118.636 37.6808 118.389 37.7821 118.129 37.8404L118.12 37.8347ZM108.316 37.6062L108.145 37.5159C108.267 37.287 108.403 37.0652 108.55 36.8516L108.708 36.9611C108.567 37.1702 108.44 37.3875 108.326 37.6119L108.316 37.6062ZM115.804 37.5947C115.556 37.516 115.313 37.4244 115.074 37.3201L115.153 37.1435C115.384 37.246 115.621 37.3351 115.862 37.4103L115.804 37.5947ZM119.452 36.9956L119.293 36.8881C119.429 36.6898 119.51 36.4583 119.527 36.218L119.719 36.2315C119.703 36.5069 119.612 36.7729 119.458 37.0014L119.452 36.9956ZM114.383 36.9668C114.159 36.8362 113.941 36.6933 113.732 36.5387L113.846 36.3851C114.049 36.535 114.26 36.6735 114.479 36.7998L114.383 36.9668ZM109.18 36.3678L109.038 36.2391C109.212 36.0458 109.397 35.8631 109.593 35.6919L109.72 35.8359C109.531 36.0045 109.353 36.184 109.186 36.3735L109.18 36.3678ZM113.133 36.0433C112.942 35.8671 112.761 35.6806 112.59 35.4846L112.734 35.3579C112.9 35.5483 113.076 35.7297 113.262 35.9012L113.133 36.0433ZM119.383 35.523C119.273 35.3036 119.121 35.1079 118.936 34.947L119.062 34.803C119.266 34.9794 119.434 35.194 119.556 35.4347L119.383 35.523ZM110.317 35.3713L110.207 35.2139C110.422 35.0672 110.644 34.932 110.873 34.8087L110.964 34.9777C110.743 35.0996 110.529 35.2329 110.322 35.3771L110.317 35.3713ZM112.11 34.8721C112.037 34.7684 111.966 34.6628 111.899 34.5534L111.649 34.6513L111.576 34.4747L111.797 34.3863C111.762 34.3287 111.728 34.2711 111.695 34.2135L111.862 34.1195C111.901 34.1867 111.939 34.2539 111.979 34.3115C112.087 34.2731 112.196 34.2366 112.308 34.202L112.363 34.394C112.269 34.4228 112.171 34.4535 112.083 34.4862C112.143 34.5803 112.204 34.6782 112.275 34.7607L112.11 34.8721ZM118.317 34.5419C118.132 34.4493 117.939 34.371 117.741 34.3076L117.615 34.2673L117.67 34.0753L117.801 34.1175C118.007 34.1831 118.207 34.2646 118.4 34.3614L118.317 34.5419ZM113.099 34.1982L113.058 34.0062C113.306 33.9505 113.563 33.9044 113.826 33.8679L113.855 34.0599C113.602 34.1003 113.35 34.1483 113.105 34.2039L113.099 34.1982ZM116.881 34.0945C116.641 34.0523 116.388 34.0196 116.129 33.9966L116.144 33.8046C116.411 33.8276 116.67 33.8603 116.912 33.9044L116.881 34.0945ZM114.606 33.9831L114.593 33.7911C114.821 33.7777 115.049 33.77 115.276 33.77H115.37V33.962H115.278C115.061 33.9678 114.834 33.9735 114.612 33.9889L114.606 33.9831ZM111.361 33.5243C111.257 33.29 111.169 33.0462 111.083 32.7985L111.275 32.739C111.355 32.9809 111.446 33.219 111.545 33.4475L111.361 33.5243ZM110.875 32.0497C110.818 31.802 110.77 31.5447 110.733 31.2817L110.925 31.2548C110.962 31.5083 111.008 31.7598 111.064 32.0036L110.875 32.0497ZM110.66 30.5137C110.651 30.3409 110.645 30.1643 110.645 29.9876C110.645 29.9051 110.645 29.8206 110.645 29.738H110.837C110.837 29.8206 110.837 29.9012 110.837 29.9838C110.837 30.1566 110.837 30.3313 110.85 30.4983L110.66 30.5137ZM110.889 28.9777L110.697 28.9585C110.724 28.7051 110.76 28.4459 110.804 28.1905L110.996 28.2231C110.945 28.4785 110.908 28.7243 110.883 28.9815L110.889 28.9777ZM111.152 27.4782L110.96 27.4321C111.021 27.1844 111.092 26.9348 111.171 26.6852L111.363 26.7447C111.277 26.9963 111.206 27.2401 111.146 27.482L111.152 27.4782ZM111.613 26.0247L111.434 25.9556C111.528 25.7156 111.626 25.4756 111.743 25.2433L111.916 25.3278C111.801 25.5582 111.699 25.7924 111.607 26.0363L111.613 26.0247ZM112.273 24.6558L112.106 24.5579C112.237 24.3371 112.377 24.1163 112.523 23.9051L112.68 24.0145C112.53 24.2257 112.394 24.4407 112.267 24.6596L112.273 24.6558ZM113.139 23.4059L112.989 23.2849C113.151 23.0929 113.323 22.8894 113.502 22.7089L113.64 22.8414C113.46 23.0219 113.291 23.2139 113.133 23.4097L113.139 23.4059ZM114.184 22.2999L114.055 22.1579C114.247 21.987 114.439 21.818 114.644 21.6548L114.763 21.8065C114.558 21.9697 114.362 22.1367 114.178 22.3038L114.184 22.2999ZM115.376 21.3515L115.266 21.1921C115.476 21.0481 115.695 20.906 115.917 20.7716L116.015 20.9348C115.793 21.0711 115.585 21.2113 115.37 21.3553L115.376 21.3515ZM116.68 20.5585L116.589 20.3895C116.816 20.2686 117.05 20.1534 117.284 20.0459L117.365 20.2206C117.121 20.33 116.897 20.4452 116.674 20.5623L116.68 20.5585ZM118.068 19.9211L117.997 19.7406C118.239 19.6465 118.482 19.5486 118.724 19.4775L118.786 19.6695C118.542 19.7425 118.3 19.8308 118.062 19.9249L118.068 19.9211Z" fill="#263238"/>
<path d="M119.548 19.4356L119.5 19.2436C119.738 19.1822 119.884 19.1553 119.884 19.1553L119.919 19.3473C119.919 19.3473 119.78 19.3761 119.548 19.4356Z" fill="#263238"/>
<path d="M122.942 18.195C122.453 16.6782 119.173 17.2234 119.813 19.2068C120.452 21.1902 123.432 19.7137 122.942 18.195Z" fill="#263238"/>
<path d="M118.028 17.5881C118.053 16.9218 118.978 16.4092 120.288 16.6454C121.597 16.8815 122.828 17.7647 122.828 17.7647C122.828 17.7647 121.536 18.5481 120.213 18.6921C118.89 18.8361 118.003 18.2524 118.028 17.5881Z" fill="#EBEBEB"/>
<path d="M122.828 17.7611C122.149 17.7611 121.471 17.7419 120.793 17.7208C120.115 17.6996 119.436 17.6651 118.758 17.6113C119.437 17.6113 120.117 17.6286 120.795 17.6497C121.473 17.6708 122.152 17.7054 122.828 17.7611Z" fill="#263238"/>
<path d="M119.344 16.9951C119.73 17.1797 120.093 17.4071 120.429 17.6729C120.235 17.5823 120.048 17.4797 119.868 17.3657C119.686 17.2525 119.511 17.1287 119.344 16.9951Z" fill="#263238"/>
<path d="M121.123 17.6973C120.776 17.9788 120.399 18.2221 120 18.423C120.349 18.1412 120.728 17.8979 121.129 17.6973H121.123Z" fill="#263238"/>
<path d="M121.32 17.3232C121.514 17.4163 121.684 17.553 121.816 17.7226C121.719 17.6769 121.628 17.6195 121.545 17.5517C121.462 17.4844 121.386 17.4077 121.32 17.3232Z" fill="#263238"/>
<path d="M119.277 21.534C119.686 22.0601 120.736 21.9334 121.659 20.9772C122.583 20.0211 123.072 18.583 123.072 18.583C123.072 18.583 121.559 18.6982 120.406 19.351C119.252 20.0038 118.866 21.006 119.277 21.534Z" fill="#EBEBEB"/>
<path d="M123.072 18.583C122.519 18.967 121.981 19.3932 121.441 19.806C120.902 20.2188 120.374 20.6451 119.857 21.0848C120.41 20.7008 120.948 20.2764 121.486 19.8636C122.023 19.4508 122.547 19.0246 123.072 18.583Z" fill="#263238"/>
<path d="M120.688 21.2364C120.79 21.0499 120.882 20.8576 120.962 20.6604C121.044 20.4627 121.113 20.2601 121.169 20.0537C121.066 20.2401 120.975 20.4324 120.895 20.6297C120.814 20.8277 120.745 21.0303 120.688 21.2364Z" fill="#263238"/>
<path d="M121.729 19.6311C121.28 19.6071 120.829 19.6309 120.385 19.7022C120.609 19.7156 120.833 19.7156 121.057 19.7022C121.282 19.6912 121.506 19.6675 121.729 19.6311Z" fill="#263238"/>
<path d="M122.1 19.8214C122.151 19.7266 122.191 19.626 122.219 19.5219C122.247 19.4185 122.264 19.3122 122.269 19.2051C122.166 19.3951 122.109 19.6058 122.1 19.8214Z" fill="#263238"/>
<path d="M122.941 18.1951C122.833 18.2303 122.717 18.2326 122.607 18.2016C122.497 18.1706 122.399 18.1077 122.325 18.0209C122.251 17.9341 122.205 17.8274 122.191 17.7141C122.178 17.6009 122.199 17.4863 122.251 17.3848C122.303 17.2833 122.384 17.1995 122.483 17.1441C122.583 17.0886 122.697 17.0639 122.81 17.0732C122.924 17.0825 123.032 17.1252 123.122 17.1961C123.211 17.267 123.277 17.3627 123.312 17.4713C123.359 17.6164 123.346 17.7741 123.276 17.9098C123.207 18.0454 123.086 18.1481 122.941 18.1951Z" fill="#455A64"/>
<path d="M123.294 19.291C123.186 19.3261 123.07 19.3282 122.96 19.2972C122.85 19.2662 122.753 19.2033 122.679 19.1166C122.605 19.0299 122.558 18.9233 122.545 18.8102C122.532 18.697 122.552 18.5825 122.604 18.4811C122.656 18.3796 122.737 18.2958 122.836 18.2402C122.935 18.1846 123.049 18.1598 123.163 18.1688C123.276 18.1778 123.384 18.2203 123.474 18.2909C123.563 18.3614 123.63 18.4569 123.665 18.5653C123.688 18.6372 123.697 18.7131 123.691 18.7886C123.685 18.864 123.664 18.9375 123.63 19.0049C123.596 19.0723 123.548 19.1323 123.491 19.1814C123.433 19.2305 123.366 19.2677 123.294 19.291Z" fill="#455A64"/>
<path d="M60.3481 18.8007C60.2561 19.6825 59.9209 20.5215 59.3798 21.224C58.8387 21.9264 58.1131 22.4647 57.2839 22.7787C56.4547 23.0927 55.5545 23.1702 54.6839 23.0024C53.8132 22.8346 53.0063 22.4282 52.3532 21.8285L49.959 22.1799L51.1571 20.1101C50.8831 19.4366 50.7662 18.7096 50.8153 17.9842C50.8643 17.2588 51.0781 16.5541 51.4402 15.9237C51.8024 15.2932 52.3035 14.7536 52.9055 14.3459C53.5074 13.9381 54.1943 13.6728 54.9141 13.5703C55.6339 13.4677 56.3676 13.5306 57.0595 13.754C57.7514 13.9775 58.3832 14.3557 58.907 14.8599C59.4309 15.3641 59.8329 15.981 60.0826 16.6639C60.3323 17.3467 60.4231 18.0775 60.3481 18.8007Z" fill="white"/>
<path d="M60.3474 18.801C60.2573 19.6825 59.9251 20.5218 59.3874 21.226C59.1247 21.5822 58.8079 21.8951 58.4485 22.1534C58.097 22.4213 57.7091 22.6379 57.2965 22.7966C56.8837 22.9591 56.45 23.0626 56.0082 23.1038C55.7873 23.1236 55.5654 23.1281 55.3439 23.1172C55.1216 23.1115 54.9001 23.0884 54.6815 23.0481C53.7991 22.8857 52.9794 22.4808 52.3141 21.8788L52.3698 21.8961L49.9794 22.2628L49.8047 22.2897L49.893 22.1361L51.0834 20.0625V20.145C50.8025 19.4591 50.6831 18.7178 50.7344 17.9784C50.7856 17.239 51.0062 16.5213 51.3791 15.8807C51.7515 15.2422 52.2635 14.6961 52.8767 14.2833C53.4889 13.876 54.1854 13.6126 54.914 13.5128C55.6425 13.413 56.3842 13.4795 57.0834 13.7073C57.7752 13.9426 58.4056 14.3297 58.9285 14.8401C59.4503 15.3492 59.8492 15.9705 60.0951 16.6568C60.3409 17.3431 60.4272 18.0764 60.3474 18.801ZM60.3474 18.801C60.425 18.08 60.3358 17.3507 60.0868 16.6696C59.8378 15.9885 59.4356 15.3737 58.9112 14.8727C58.3868 14.3717 57.7544 13.9979 57.0626 13.7802C56.3708 13.5625 55.6383 13.5067 54.9215 13.617C54.2119 13.7221 53.5359 13.9888 52.9458 14.3966C52.3607 14.8076 51.872 15.3408 51.5135 15.9594C51.1605 16.5794 50.9524 17.2713 50.9048 17.9831C50.8581 18.6998 50.9736 19.4178 51.2428 20.0836L51.2601 20.1258L51.237 20.1662L50.0312 22.2321L49.9468 22.1054L52.3429 21.7694H52.3756L52.3986 21.7905C53.0391 22.3866 53.8329 22.7928 54.6911 22.9636C54.905 23.0072 55.122 23.0335 55.3401 23.0423C55.558 23.0577 55.7768 23.0577 55.9948 23.0423C56.4319 23.0071 56.8621 22.9121 57.2735 22.7601C57.6858 22.61 58.0739 22.4004 58.4255 22.138C58.7834 21.8818 59.1006 21.573 59.3663 21.2222C59.9109 20.5213 60.2505 19.6833 60.3474 18.801Z" fill="#263238"/>
<path d="M53.2488 20.5348C53.2451 20.4713 53.2546 20.4076 53.2765 20.3478C53.2984 20.2881 53.3324 20.2334 53.3763 20.1873C53.4203 20.1413 53.4732 20.1047 53.5319 20.0799C53.5905 20.0551 53.6536 20.0427 53.7173 20.0433C53.8477 20.0433 53.9727 20.0951 54.0649 20.1873C54.157 20.2794 54.2088 20.4045 54.2088 20.5348C54.2088 20.6652 54.157 20.7902 54.0649 20.8824C53.9727 20.9746 53.8477 21.0263 53.7173 21.0263C53.6536 21.027 53.5905 21.0145 53.5319 20.9897C53.4732 20.965 53.4203 20.9284 53.3763 20.8823C53.3324 20.8362 53.2984 20.7816 53.2765 20.7218C53.2546 20.662 53.2451 20.5984 53.2488 20.5348ZM53.4408 19.4001L53.3295 15.5908H54.0975L53.9861 19.4001H53.4408Z" fill="#F6B205"/>
<path d="M55.075 20.5348C55.0713 20.4714 55.0807 20.4079 55.1025 20.3483C55.1243 20.2886 55.1581 20.2341 55.2019 20.1881C55.2456 20.142 55.2983 20.1054 55.3567 20.0805C55.4151 20.0556 55.478 20.0429 55.5416 20.0433C55.6719 20.0433 55.7969 20.0951 55.8891 20.1873C55.9813 20.2794 56.0331 20.4045 56.0331 20.5348C56.0331 20.6652 55.9813 20.7902 55.8891 20.8824C55.7969 20.9746 55.6719 21.0263 55.5416 21.0263C55.478 21.0267 55.4151 21.0141 55.3567 20.9892C55.2983 20.9643 55.2456 20.9277 55.2019 20.8816C55.1581 20.8355 55.1243 20.781 55.1025 20.7213C55.0807 20.6617 55.0713 20.5982 55.075 20.5348ZM55.267 19.4001L55.1614 15.5908H55.9294L55.818 19.4001H55.267Z" fill="#F6B205"/>
<path d="M56.8992 20.5348C56.8955 20.4713 56.9049 20.4076 56.9269 20.3478C56.9488 20.2881 56.9828 20.2334 57.0267 20.1873C57.0707 20.1413 57.1236 20.1047 57.1823 20.0799C57.2409 20.0551 57.304 20.0427 57.3677 20.0433C57.4981 20.0433 57.6231 20.0951 57.7153 20.1873C57.8074 20.2794 57.8592 20.4045 57.8592 20.5348C57.8592 20.6652 57.8074 20.7902 57.7153 20.8824C57.6231 20.9746 57.4981 21.0263 57.3677 21.0263C57.304 21.027 57.2409 21.0145 57.1823 20.9897C57.1236 20.965 57.0707 20.9284 57.0267 20.8823C56.9828 20.8362 56.9488 20.7816 56.9269 20.7218C56.9049 20.662 56.8955 20.5984 56.8992 20.5348ZM57.0912 19.4001L56.9799 15.5908H57.7479L57.6384 19.4001H57.0912Z" fill="#F6B205"/>
</svg>
