<svg width="19" height="19" viewBox="0 0 19 19" fill="none" xmlns="http://www.w3.org/2000/svg">
<path d="M4.58594 14.6768C4.58594 15.0746 4.74397 15.4561 5.02528 15.7374C5.30658 16.0187 5.68811 16.1768 6.08594 16.1768L12.0859 16.1768C12.4838 16.1768 12.8653 16.0187 13.1466 15.7374C13.4279 15.4561 13.5859 15.0746 13.5859 14.6768L13.5859 5.67676L4.58594 5.67676L4.58594 14.6768ZM6.08594 7.17676L12.0859 7.17676L12.0859 14.6768L6.08594 14.6768L6.08594 7.17676ZM11.7109 3.42676L10.9609 2.67676L7.21094 2.67676L6.46094 3.42676L3.83594 3.42676L3.83594 4.92676L14.3359 4.92676L14.3359 3.42676L11.7109 3.42676Z" fill="#C71026"/>
</svg>
